<svg height="490.4pt" viewBox="0 0 490.4 490.4" width="490.4pt" xmlns="http://www.w3.org/2000/svg"><path d="M245.2 490.398C109.995 490.398 0 380.402 0 245.2S109.996 0 245.2 0s245.198 109.996 245.198 245.2S380.402 490.397 245.2 490.397zM245.2 8C114.405 8 8 114.406 8 245.2s106.406 237.198 237.2 237.198S482.397 375.992 482.397 245.2 375.992 8 245.2 8zm0 0" fill="#3762cc"/><path d="M451.855 489.2H39.504a4 4 0 01-4-4V5.2a4 4 0 014-4h412.351c2.208 0 4 1.792 4 4v480c0 2.206-1.792 4-4 4zm-408.351-8h404.351V9.2H43.504zm0 0" fill="#3762cc"/><path d="M443.438 164.254h-9.825a4.5 4.5 0 004.477-4.965c-.235-2.34-2.38-4.035-4.735-4.035h-17.542c-1.11 0-2.172.46-2.93 1.277l-7.188 7.723h.235c-3.953 0-7.215 2.875-7.864 6.64L289.91 157.747c-7.125-8.187-16.773-14.121-27.73-16.586v-7.695c16.754-6.04 29.593-20.27 33.695-37.86 4.031.43 8.445-.43 13.547-5.832 2.723-2.894 4.469-6.64 4.387-10.617-.18-8.789-7.364-15.855-16.196-15.855-.113 0-.222.011-.336.015v-3.91c0-28.933-22.683-53.39-51.605-54.183-30.012-.825-54.594 23.257-54.594 53.078v5.02c-.113-.005-.223-.02-.336-.02-8.945 0-16.195 7.25-16.199 16.195-.004 4.04 1.848 7.832 4.703 10.692 5.027 5.035 9.305 5.84 13.234 5.417 4.106 17.59 16.942 31.825 33.7 37.864v8.058a51.875 51.875 0 00-26.067 15.957L92.328 170.59c-.648-3.774-3.91-6.645-7.863-6.645h.234l-7.187-7.726a4.008 4.008 0 00-2.93-1.274H57.039c-2.355 0-4.5 1.692-4.734 4.035a4.5 4.5 0 004.476 4.965h-9.824a8 8 0 00-8 8v27a8 8 0 008 8h37.504c4.055 0 7.367-3.023 7.894-6.933h94.774v115.89h.242v.965h-.473v41l10.356 110.645a4.004 4.004 0 01-2.945 4.234l-15.86 4.266c-1.476.398-2.719 1.527-3.066 3.015a4.133 4.133 0 004.055 5.13l51.738-.579a4 4 0 003.945-3.762l8.05-134.945h2.977l8.051 134.945a4 4 0 003.946 3.762l51.582.574c1.867.024 3.628-1.12 4.152-2.91a4.134 4.134 0 00-2.875-5.195l-15.992-4.3a4 4 0 01-2.946-4.235l10.352-110.645v-12h.238V200.32h95.383c.524 3.91 3.84 6.934 7.89 6.934h37.505a8 8 0 008-8v-27a7.995 7.995 0 00-7.996-8zm0 0" fill="#f9cfcf"/><path d="M179.387 489.152a8.074 8.074 0 01-6.34-3.043c-1.574-1.964-2.14-4.515-1.559-7 .676-2.875 2.95-5.16 5.922-5.96l15.86-4.266-10.352-110.64a4.018 4.018 0 01-.02-.376v-41c0-.476.086-.933.239-1.36V204.013H95.305c-1.926 4.12-6.11 6.933-10.836 6.933H46.965c-6.617 0-12-5.382-12-12v-27c0-6.62 5.383-12 12-12H48.3a8.89 8.89 0 01.027-1.367c.43-4.281 4.258-7.637 8.715-7.637h17.543a8.02 8.02 0 015.855 2.551l6.184 6.645a11.939 11.939 0 018.383 6.093l103.144-12.539c6.606-7.09 14.836-12.289 24.032-15.183v-2.305c-15.946-6.644-27.918-20.012-32.77-36.555-4.672-.347-8.867-2.503-12.992-6.636-3.793-3.797-5.879-8.598-5.875-13.52.004-9.883 7.144-18.129 16.535-19.86v-1.331c0-15.547 6.137-30.086 17.285-40.93C215.506 6.532 230.233.767 245.78 1.224c30.602.836 55.5 26.937 55.5 58.18v.238c9.207 1.718 16.332 9.78 16.531 19.433.098 4.817-1.843 9.59-5.476 13.442-4.207 4.457-8.527 6.777-13.387 7.132-4.847 16.543-16.824 29.91-32.765 36.555v1.856c9.875 2.82 18.687 8.265 25.707 15.902l103.5 12.582a11.96 11.96 0 018.382-6.094l6.184-6.64a8.02 8.02 0 015.855-2.551h17.543c4.457 0 8.286 3.355 8.715 7.637.043.457.055.914.028 1.363h1.336c6.617 0 12 5.383 12 12v27c0 6.617-5.383 12-12 12H405.93c-4.727 0-8.91-2.813-10.836-6.934H306.66v141.547c0 .48-.086.941-.238 1.367v10.633c0 .121-.008.25-.02.371l-10.351 110.64 15.992 4.305a8.168 8.168 0 014.973 3.868c1.082 1.922 1.332 4.164.703 6.308-1.012 3.45-4.332 5.793-8.035 5.79l-51.582-.575c-4.18-.047-7.649-3.351-7.899-7.523l-5.543-92.985-5.547 92.985c-.25 4.172-3.718 7.476-7.894 7.523l-51.739.578c-.03-.004-.062-.004-.093-.004zm11.511-131.472l10.336 110.453a7.982 7.982 0 01-5.886 8.472l-15.86 4.266a.479.479 0 00-.238.137l.184 4.144-.043-4 51.738-.578 8.047-134.945a3.999 3.999 0 013.996-3.762h2.976a4.004 4.004 0 013.997 3.762l8.046 134.945 51.582.578a.458.458 0 00.297-.097l-16.097-4.45a7.973 7.973 0 01-5.883-8.468l10.332-110.457v-11.813c0-.48.086-.941.238-1.367V200.324c0-2.207 1.793-4 4-4h95.38a4 4 0 013.964 3.465c.266 1.977 1.957 3.465 3.93 3.465h37.503c2.204 0 4-1.793 4-4v-27c0-2.207-1.796-4-4-4h-9.824c-2.207 0-4-1.793-4-4s1.793-4 4-4c.184 0 .305-.09.371-.164.153-.164.133-.344.13-.402-.016-.172-.364-.434-.755-.434h-17.543l-6.289 6.758a4.002 4.002 0 01-3.593 2.242 3.97 3.97 0 00-3.918 3.32 4.008 4.008 0 01-4.426 3.293L289.434 161.72a4.002 4.002 0 01-2.536-1.344c-6.765-7.77-15.613-13.066-25.59-15.309a3.999 3.999 0 01-3.124-3.902v-7.695a3.997 3.997 0 012.644-3.762c15.719-5.668 27.367-18.754 31.16-35.008a3.98 3.98 0 014.32-3.07c2.762.297 5.922-.055 10.212-4.598 2.183-2.316 3.355-5.082 3.296-7.785-.132-6.586-5.605-11.941-12.195-11.941l-.266.015c-1.12.055-2.109-.394-2.875-1.144a4.004 4.004 0 01-1.195-2.856v-3.914c0-26.949-21.406-49.46-47.719-50.183-13.41-.38-26.039 4.566-35.62 13.886-9.583 9.325-14.86 21.825-14.86 35.192v5.02a3.992 3.992 0 01-1.2 2.85c-.761.755-1.757 1.196-2.87 1.145-.07 0-.301-.011-.371-.015-6.622 0-12.094 5.472-12.098 12.195 0 2.785 1.254 5.578 3.539 7.863 4.227 4.239 7.289 4.551 9.977 4.27 2-.227 3.859 1.101 4.32 3.066 3.793 16.254 15.437 29.34 31.156 35.008a4.004 4.004 0 012.645 3.762v8.058a3.996 3.996 0 01-3.008 3.875c-9.34 2.383-17.66 7.477-24.059 14.73a3.995 3.995 0 01-2.515 1.325L92.816 174.555a3.996 3.996 0 01-4.425-3.293 3.974 3.974 0 00-3.918-3.32 3.993 3.993 0 01-3.594-2.243l-6.29-6.758H57.048c-.39 0-.734.262-.75.434a.485.485 0 00.125.398.477.477 0 00.371.168 4 4 0 010 8h-9.82c-2.207 0-4 1.793-4 4v27c0 2.204 1.793 4 4 4h37.504c1.972 0 3.66-1.492 3.925-3.468a4 4 0 013.965-3.465h94.778a4 4 0 014 4V314.53c.156.426.242.887.242 1.367v.965c0 .688-.172 1.332-.48 1.899v38.918zm0 0" fill="#3762cc"/><path d="M50.848 127.363l33.414 17.028c3.61 1.84 7.937.648 10.18-2.594l45.206 23.031 60.47-7.348a51.885 51.885 0 016.195-5.917l-98.536-35.997c1.133-3.652-.468-7.695-3.992-9.488l.207.106-2.894-10.145a4.017 4.017 0 00-2.032-2.469l-15.632-7.96c-2.098-1.07-4.778-.536-6.051 1.445a4.504 4.504 0 001.738 6.457l-8.754-4.461a8.002 8.002 0 00-10.758 3.496l-12.257 24.058a7.995 7.995 0 003.496 10.758zm0 0" fill="#f9a7a7"/><path d="M139.648 168.832c-.625 0-1.25-.148-1.812-.437l-42.582-21.696c-3.59 2.797-8.594 3.406-12.805 1.258L49.031 130.93a11.927 11.927 0 01-5.965-6.985c-.992-3.05-.738-6.3.72-9.156L56.042 90.73a11.94 11.94 0 016.984-5.964 11.942 11.942 0 019.157.718l1.191.61c.18-.414.395-.817.645-1.203 2.328-3.621 7.261-4.871 11.23-2.848l15.633 7.965a8.005 8.005 0 014.058 4.933l2.493 8.723a11.939 11.939 0 014.703 9.234l95.547 34.907a4.006 4.006 0 012.574 3.093 4.008 4.008 0 01-1.422 3.766 48.013 48.013 0 00-5.719 5.461 4.023 4.023 0 01-2.515 1.324l-60.47 7.348c-.16.023-.32.035-.484.035zm-45.203-31.035c.614 0 1.235.14 1.813.437l44.12 22.48 57.778-7.023.602-.629-92.356-33.742a3.998 3.998 0 01-2.449-4.941 3.97 3.97 0 00-1.988-4.738 3.999 3.999 0 01-2.184-3.63l-2.535-8.878-15.633-7.961c-.36-.188-.773-.102-.867.043a.507.507 0 00.184.73h.004a4.001 4.001 0 011.746 5.38 3.994 3.994 0 01-5.38 1.75c-.003-.005-.01-.005-.015-.009l-8.738-4.453a3.98 3.98 0 00-3.05-.238 3.963 3.963 0 00-2.329 1.988l-12.254 24.059a3.964 3.964 0 00-.238 3.05 3.981 3.981 0 001.984 2.329l33.418 17.027c1.754.89 3.938.332 5.07-1.305a4.012 4.012 0 013.297-1.726zm0 0" fill="#3762cc"/><path d="M283.684 151.71a52.272 52.272 0 016.23 6.036l60.34 7.34 45.703-23.29c2.246 3.243 6.57 4.434 10.18 2.595l33.414-17.024a8 8 0 003.496-10.762l-12.258-24.058a8.002 8.002 0 00-10.758-3.496l-8.754 4.46a4.504 4.504 0 001.739-6.456c-1.274-1.98-3.953-2.516-6.051-1.446l-15.633 7.961a4.004 4.004 0 00-2.031 2.47l-2.899 10.144.211-.106c-3.523 1.793-5.125 5.836-3.992 9.488zm0 0" fill="#f9a7a7"/><path d="M350.254 169.086c-.16 0-.32-.012-.48-.031l-60.34-7.336a4.02 4.02 0 01-2.54-1.344 48.134 48.134 0 00-5.753-5.574 4 4 0 011.168-6.848l95.953-35.055a11.95 11.95 0 014.703-9.234l2.496-8.726a8.002 8.002 0 014.062-4.93l15.625-7.965c3.973-2.023 8.907-.77 11.235 2.848.246.386.46.789.64 1.203l1.192-.61a11.922 11.922 0 019.156-.718 11.93 11.93 0 016.984 5.964l12.258 24.06a11.923 11.923 0 01.723 9.155 11.94 11.94 0 01-5.965 6.985l-33.418 17.027c-4.215 2.145-9.219 1.54-12.805-1.258l-43.078 21.95a3.979 3.979 0 01-1.816.437zm-58.367-15.125l57.64 7.004 44.614-22.735a3.998 3.998 0 015.105 1.293c1.137 1.637 3.317 2.196 5.074 1.301l33.418-17.027a3.976 3.976 0 001.989-2.328 3.966 3.966 0 00-.243-3.051l-12.257-24.059a3.976 3.976 0 00-2.329-1.988 3.964 3.964 0 00-3.05.242l-8.75 4.457a3.998 3.998 0 01-5.383-1.75 3.996 3.996 0 011.75-5.379.482.482 0 00.254-.316c.058-.215-.04-.363-.07-.414-.094-.145-.508-.23-.868-.047l-15.633 7.965-2.535 8.879a3.999 3.999 0 01-2.183 3.629 3.975 3.975 0 00-1.989 4.734 4.002 4.002 0 01-2.445 4.945l-92.8 33.903c.234.25.464.496.69.742zm0 0" fill="#3762cc"/><path d="M186.898 357.867v-41h.48v-.969h-.241v-1.156l-11.805 11.805-70.914 85.558a4.003 4.003 0 01-5.074.915l-14.352-8.266a4.126 4.126 0 00-4.945 6.523l36.996 36.176a3.999 3.999 0 005.45.133l67.222-59.656zm0 0" fill="#f9a7a7"/><path d="M119.84 452.582a8.002 8.002 0 01-5.598-2.27L77.25 414.137a8.07 8.07 0 01-2.445-5.762 8.074 8.074 0 012.379-5.79 8.13 8.13 0 019.8-1.296l14.352 8.266 70.91-85.559c.082-.094.164-.187.254-.273l11.805-11.809a4.011 4.011 0 014.36-.867 3.994 3.994 0 012.46 3.469c.16.43.25.898.25 1.382v.97a3.94 3.94 0 01-.48 1.894v38.918l2.796 29.875a4.016 4.016 0 01-1.328 3.367l-67.222 59.652a7.95 7.95 0 01-5.301 2.008zm-36.848-44.363l-.187.11 37.035 36.265 65.703-58.309-2.625-28.047a3.935 3.935 0 01-.02-.37v-33.231l-4.609 4.605-70.793 85.414a7.988 7.988 0 01-10.152 1.828zm0 0" fill="#3762cc"/><path d="M405.41 404.754l-14.351 8.266a4.003 4.003 0 01-5.075-.915l-70.914-85.558-12.41-12.406v31.726h-.238v12l-2.73 29.18 65.343 57.984a8.125 8.125 0 0011.074-.265l34.246-33.489a4.126 4.126 0 00-4.945-6.523zm0 0" fill="#f9a7a7"/><path d="M370.422 451.066c-2.875 0-5.75-1.007-8.043-3.043l-65.344-57.984a4.009 4.009 0 01-1.328-3.363l2.715-28.996v-11.813a4 4 0 01.238-1.37V314.14c0-1.618.973-3.079 2.469-3.696a3.988 3.988 0 014.36.868l12.406 12.41c.09.086.171.18.253.273l70.915 85.555 14.347-8.262a8.128 8.128 0 019.8 1.293 8.061 8.061 0 012.384 5.793 8.08 8.08 0 01-2.446 5.762l-34.246 33.488a12.118 12.118 0 01-8.48 3.441zm-66.559-65.668l63.828 56.641a4.138 4.138 0 005.622-.137l34.246-33.488-.153-.2-14.347 8.266a7.978 7.978 0 01-10.153-1.828l-70.793-85.41-5.449-5.449v22.07c0 .48-.086.942-.238 1.367v10.633c0 .125-.008.25-.02.371zm101.543 19.356h.024zm0 0" fill="#3762cc"/></svg>