<svg xmlns="http://www.w3.org/2000/svg" viewBox="0 0 511.991 511.991"><path d="M503.821 434.258c-1.324-.318-2.756-.325-3.94-.997-2.341-1.331-2.661-4.57-2.297-7.238.218-1.591.418-3.573-.927-4.45-.619-.403-1.403-.43-2.108-.65-1.553-.485-2.661-1.919-3.181-3.461-1.305-3.873-1.518-8.314-2.301-12.345-.133-.684-.3-1.426-.846-1.857-.825-.65-2.021-.259-3.069-.339-1.985-.15-3.432-2.132-3.675-4.108-.325-2.654.523-5.039.105-7.755-2.215-14.401-2.693-29.306-4.003-43.82a15335.747 15335.747 0 01-3.899-43.884c-.863-9.895-1.328-19.576-1.328-29.535-.012-1.67.214-3.721 1.754-4.364.816-.34 1.825-.164 2.545-.679 1.428-1.02.35-3.448 1.271-4.942 1.059-1.721 4.199-1.369 4.892-3.267.669-1.829-1.753-3.82-.928-5.585.524-1.12 1.989-1.325 3.084-1.9 1.564-.821 2.473-2.566 2.735-4.313.512-3.418-.864-7.344-2.703-10.205-.383-.595-.826-1.182-1.45-1.518-1.064-.573-2.4-.29-3.533-.708-4.797-1.769-3.163-13.091-2.976-16.823.1-1.993.236-4.097 1.353-5.75 1.12-1.659 3.029-2.57 4.553-3.867 2.967-2.524 2.293-7.394 3.523-10.84.48-1.344 1.085-2.742 2.262-3.547 1.304-.893 3.03-.861 4.584-.571 1.554.29 3.089.805 4.67.763 1.489-.04 2.793-.571 3.865-1.413 2.001-1.571 3.188-4.227 3.237-6.795.013-.67-.08-1.4-.551-1.879-.572-.581-1.488-.597-2.24-.91-2.062-.855-2.06-2.975-2.262-4.833-.17-1.552-.715-2.98-.897-4.537-.494-4.211.15-8.875 2.364-12.54 1.39-2.301 3.38-4.175 4.987-6.33 1.551-2.081 4.175-6.369.823-7.878-2.853-1.284-6.698.281-8.527 2.609-1.236 1.573-.996 3.568-3.141 4.45-.355.146-.82.217-1.076-.069-.368-.412.062-1.023.379-1.476.88-1.252.84-3.076-.094-4.288-2.215-2.876-6.176-1.031-6.93 1.999-.335 1.346-.218 2.761-.023 4.134.093.66.205 1.329.113 1.99-.092.66-.425 1.324-1.015 1.636-1.524.808-3.647-2.394-6.02-1.557-1.215.429-2.175 1.626-2.14 2.914.042 1.558 1.389 3.182.566 4.504-.276.443-.753.732-1.034 1.172-.625.984-.071 2.26-.059 3.426.063 6.214-8.184 2.637-11.025 1.376a822.407 822.407 0 00-64.647-25.484c-13.269-4.593-26.347-9.554-39.627-14.155a930.208 930.208 0 00-60.048-18.557c-3.088-.841-6.768-1.291-9.631-2.727-.781-.392-7.027-3.294-7.027-3.153-3.131-1.102-7.357-1.831-10.156-3.601-1.767-1.117-2.789-3.829-3.427-5.748-.743-2.236-1.134-4.806-2.961-6.295-.737-.599-1.663-.974-2.273-1.702-.812-.966-.892-2.385-.521-3.592.619-2.015 2.023-3.37 3.643-4.613 1.386-1.065 2.907-1.976 4.105-3.249 1.603-1.704 2.959-5.374.123-6.706-1.11-.521-2.419-.213-3.584.166-1.167.379-2.392.828-3.587.556-3.806-.864-.496-5.093-1.386-7.185-.448-1.051-1.608-1.565-2.488-2.294-1.325-1.096-2.052-2.736-3.103-4.097-1.051-1.36-2.767-2.518-4.405-1.994-2.723.872-2.467 5.112-4.718 6.874-1.417 1.109-3.754 1.174-4.448 2.834-.442 1.056.041 2.24.225 3.369.183 1.129-.238 2.62-1.378 2.72-.812.071-1.456-.62-2.145-1.056-2.262-1.429-5.607.245-6.297 2.831-.69 2.586.884 5.415 3.214 6.732 1.541.871 3.489 1.306 4.409 2.817 1.643 2.698-.803 6.562-2.478 8.601-2.255 2.744-3.895 5.899-5.774 8.896-2.034 3.245-4.437 4.295-7.878 5.435-3.804 1.261-7.558 2.792-11.385 4.04-7.938 2.59-15.954 4.933-23.99 7.198-25.542 7.195-51.482 13.593-75.786 24.463-2.565 1.147-4.917 2.479-7.731 2.796-2.953.332-5.621 1.214-8.449 2.147a411.62 411.62 0 00-57.81 24.087c-1.469.748-2.968 1.517-4.599 1.759-1.631.243-3.449-.133-4.542-1.368-1.538-1.739-.076-2.641-.012-4.247.055-1.395-1.473-3.375-3.052-2.705 2.16-1.777 2.039-5.632-.23-7.269-2.269-1.637-5.966-.537-6.971 2.073-.797-2.17.021-4.553.257-6.852.236-2.3-.596-5.177-2.866-5.608-1.57-.298-3.134.818-3.879 2.232-.744 1.415-.855 3.066-.951 4.661a15.563 15.563 0 00-8.752-6.964c-1.532-.475-3.378-.645-4.58.417-1.513 1.336-1.147 3.782-.386 5.652 2.209 5.425 6.467 9.665 8.981 14.921 1.827 3.819 2.216 9.724.081 13.525-1.426 2.54-4.573 3.288-3.873 6.511.483 2.221 2.27 6.185 4.905 6.466 1.68.178 3.205-1.113 4.894-1.142 1.442-.024 2.722.864 3.886 1.715 1.49 1.088 3.03 2.234 3.886 3.868 1.496 2.857.575 6.248 1.615 9.188.4 1.131 1.294 2.164 2.473 2.386 1.278.242 2.736-.466 3.834.23 1.007.639 1.077 2.055 1.036 3.247-.144 4.161-.405 8.283.047 12.374.366 3.306-1.162 6.728-3.889 8.657-1.505 1.064-3.434 1.55-4.652 2.933-1.197 1.359-1.448 3.305-1.404 5.115.058 2.359.292 5.929 2.083 7.647 1.589 1.524 3.224 1.592 3.233 4.346.004 1.288-.324 2.559-.35 3.848-.105 5.093 5.97 7.467 8.617 10.977 1.356 1.798 1.892 4.108 1.914 6.36.022 2.258-.666 4.444-.48 6.673.194 2.323.275 4.501.063 6.861-2.833 31.584-4.988 63.228-7.534 94.838-.383 4.756 1.507 15.816-4.648 17.644-1.351.401-2.848.288-4.109.916-1.857.925-2.649 3.196-2.684 5.27-.035 2.074.497 4.126.481 6.2-.017 2.047-.933 4.742-2.801 5.872-1.938 1.172-4.59.462-6.155 2.454-1.212 1.543-.801 3.747-.48 5.682.322 1.935.317 4.302-1.308 5.4-1.458.985-3.441.398-5.152.808-2.842.68-4.315 4.077-3.886 6.967.403 2.72 2.322 6.373 3.906 8.614 2.015 2.851 6.785 2.842 9.871 2.884 1.153.016 2.306.025 3.458.03 28.879.109 57.613-3.264 86.444-4.397 14.335-.564 28.716-.573 43.017.698 3.582.318 7.156.717 10.719 1.202 3.225.439 6.54.104 9.82.038 7.263-.147 14.528-.099 21.791-.049l60.129.411c14.224.098 28.652.955 42.782-.188a769.162 769.162 0 0143.861-2.29c28.693-.677 57.257 1.26 85.884 1.856 26.218.546 52.701 6.558 78.415 1.408 2.475-.495 5.036-1.147 6.934-2.811 4.976-4.357.624-14.063-5.14-15.448zM96.986 289.374c-1.026 8.569-1.372 17.199-2.108 25.798-.845 9.878-1.562 19.812-2.8 29.649-1.209 9.606-3.225 19.1-4.288 28.725-.522 4.727-.973 9.605-.723 14.363.14 2.674 1.016 5.689.119 8.306-2.193 6.389-10.889 3.99-15.806 5.038-1.526.326-3.226-.704-3.166-2.412.476-13.572-1.436-27.32-1.685-40.921-.251-13.685-1.041-27.353-1.974-41.005-.465-6.806-.978-13.609-1.444-20.416-.414-6.048-1.565-11.764-2.321-17.733-.61-4.822.875-5.929 3.676-9.374 1.272-1.564 1.919-3.321 3.362-4.764 1.827-1.826 4.266-2.898 4.635-5.491-.897-1.311-.686-3.492 1.298-4.094 3.841-1.165 9.903-3.513 12.55 1.039 1.447 2.487 1.211 5.741 3.043 8.317 1.911 2.688 4.878 4.378 6.455 7.319 2.842 5.301 1.857 11.971 1.177 17.656zm352.431 1.621c-.299 9.179-.455 18.36-.805 27.538-.737 19.28-2.889 38.665-3.069 57.936-.042 4.48.113 8.966-.266 13.436-.185 2.177-.1 5.516-1.382 7.436-2.548 3.818-11.708 2.669-15.386 2.46-1.024-.059-2.307-.739-2.469-1.88-1.906-13.341-1.36-26.886-2.875-40.282-1.588-14.046-3.409-28.068-4.711-42.145-.666-7.201-1.195-14.417-1.477-21.644-.205-5.268-1.469-10.404-1.668-15.657-.161-4.231 1.109-7.217 3.915-10.351 2.859-3.194 5.346-5.774 7.352-9.219-.251-.993.021-2.112 1.142-2.821 4.293-2.714 8.603-2.351 12.207 1.3 3.325 3.369 6.81 8.542 9.087 12.663 3.225 5.84.612 14.891.405 21.23z" fill="#d8ceb6"/><path d="M127.496 255.463c-.007 2.187.941 4.984-.862 6.822-.788.803-2.453.728-3.131 1.624-.641.848-.082 2.28-.798 3.196-.803 1.027-2.492.946-3.429 1.809-1.095 1.009-1.36 2.477-1.486 3.871-.466 5.209.261 10.965.494 16.205 1.153 25.973 4.234 51.811 4.234 77.904 0 5.534.249 11.005.249 16.555 0 2.676.029 5.353 0 8.029-.02 1.801-.762 4.373-.251 6.129 1.067 3.663 7.192 2.628 10.339 2.944 1.995.199 3.997.188 6.02.187 1.206 0 4.767.721 5.641.105 1.028-.725.783-4.197.832-5.208.187-3.878.088-7.801.248-11.668.373-8.934 1.801-17.796 2.574-26.709 1.692-19.515 3.898-39.002 5.566-58.512.647-7.569.766-15.081 1.113-22.648.07-1.51.797-3.842.142-5.316-.728-1.639-2.45-1.862-3.734-2.758-2.694-1.879-4.977-4.705-5.847-7.822-1.573-5.626-4.41-5.722-10.032-5.71-3.837.01-6.35-1.035-7.882.971zm57.713-.746c.965 2.656-.555 6.677-2.487 8.257-1.01.827-2.914 1.184-3.668 2.24-.783 1.096-.42 2.68-1.294 3.931-.924 1.323-2.784 1.916-3.453 3.483-.71 1.663.177 3.972.431 5.704 1.05 7.175.917 14.856 1.246 22.1.716 15.735 2.462 31.427 3.234 47.164.728 14.827.518 29.73.518 44.609 0 1.686-.805 6.17.437 7.556 1.219 1.359 5.245.801 6.912.726 3.993-.181 10.399 2.257 14.004.455.699-5.549.264-11.184 1.038-16.76.994-7.16 1.787-14.344 2.804-21.503 1.845-12.979 2.005-26.11 3.359-39.16 1.315-12.671 2-25.571 2.487-38.275.136-3.56 1.554-8.899.813-12.3-.629-2.888-3.92-5.154-5.588-7.539-2.348-3.357-4.369-5.719-5.618-9.57-.718-2.215-.247-1.92-3.116-2.114-4.255-.287-8.666.156-12.059.996zm56.469-1.244c1.491 1.441 1.559 5.983.248 7.566-1.389 1.677-3.901 1.266-5.423 2.951-1.172 1.297-.659 2.751-1.349 4.221-.942 2.003-2.543 1.883-4.067 3.173-2.909 2.463-.022 8.358.399 11.748 1.625 13.085 1.294 26.486 2.481 39.627 1.315 14.56 1.876 29.387 1.99 44.025.055 7.072.747 14.101.747 21.195 0 2.857-1.225 10.271.797 12.504 2.307 2.547 11.308 1.642 14.496 1.77 6.082.246 13.561 2.076 19.595.681 4.219-.975 3.099-7.501 3.171-10.878.178-8.408 1.269-16.761 1.246-25.186-.052-20.173 2.504-40.023 3.475-60.106.391-8.089.8-16.091 1.568-24.132.421-4.408 1.512-8.961-1.736-12.198-2.532-2.523-4.479-5.611-6.79-8.237-1.818-2.065-1.16-3.442-1.733-5.875-.846-3.601-4.771-3.505-7.926-3.731-3.327-.239-6.596.188-9.916.081-2.925-.094-6.207.818-11.273.801zm69.652.248c1.159 2.492.758 6.446-1.189 8.475-.809.844-1.961 1.077-2.741 1.973-.827.949-.829 2.091-1.917 3.108-2.489 2.329-4.101 2.26-4.114 6.065-.016 4.918.812 10.03 1.001 15.007.51 13.349 2.262 26.772 2.989 40.144.663 12.193 1.301 24.465 2.456 36.601.973 10.212 1.795 20.393 2.76 30.551.475 4.997 2.587 5.565 7.396 6.156 2.455.302 5.202.62 7.663.666 1.276.024 4.244.373 5.24-.469 1.674-1.416.579-5.042.48-6.789-.198-3.487-.268-7.031-.117-10.516.302-6.981.327-13.972 1.016-20.946 1.68-17.017 1.005-34.103 2.21-51.126.605-8.536 1.17-17.069 2.301-25.57.516-3.883 3.026-12.294.993-15.932-.875-1.568-2.859-1.922-3.924-3.366-1.046-1.417-.883-3.408-2.288-4.595-1.67-1.41-3.28-.607-4.233-3.011-.816-2.063.805-4.536-.807-6.068-2.351-2.233-9.513-.614-15.175-.358zm58.211.747c0 2.892.175 5.729-2.246 7.649-.966.767-2.063.861-2.854 1.919-.913 1.223-1.004 2.852-1.872 4.114-1.983 2.882-4.557 2.268-4.476 6.399.099 5.082 1.076 10.553 1.56 15.679 1.157 12.271 1.028 24.646 2.178 36.89.59 6.286 1.619 12.412 2.246 18.7 1.238 12.408 2.907 24.675 3.481 37.133.212 4.594-.699 10.615.685 15.01 1.138 3.613 7.751 2.559 11.182 2.723 2.098.101 5.009.559 7.032.123 2.715-.587 2.745-2.428 2.936-5.162.258-3.707-.526-7.47-.701-11.17-.22-4.67-.124-9.389.011-14.034.59-20.239 2.661-40.417 3.487-60.666.381-9.369.577-18.605 2.575-27.803.975-4.488 2.061-8.674-1.704-11.708-2.831-2.281-4.293-5.214-6.726-7.58-3.327-3.237-.78-7.792-6.599-8.443-2.771-.31-5.455.634-10.195.227z" fill="#9e8c69"/><path d="M234.463 400.74c3.069-6.339 2.938-14.368 2.294-21.339-.892-9.664-.701-19.477-1.797-29.126-2.066-18.204-1.169-36.475-2.978-54.706-.328-3.304-1.686-6.801 2.102-7.213 3.709-.404 8.13-.176 11.879.187 9.493.917 19.372 1.187 28.861.261 3.174-.31 6.07-1.18 6.425 2.875.286 3.278-.706 7.147-1.076 10.434-.5 4.432-.964 8.855-1.491 13.285-1.879 15.761-2.924 31.36-2.924 47.225 0 7.027-.324 14.134-.013 21.153.137 3.114-.147 6.183.007 9.308.073 1.481.913 4.35.079 5.687-1.088 1.744-4.48 1.486-6.293 1.729-4.925.66-9.755.963-14.709 1.287-5.21.339-12.849 1.357-20.366-1.047z" fill="#776951"/><path d="M249.014 125.801c-.937.258-1.899.544-2.916.825-3.283.91-6.713.972-10.051 1.855-9.847 2.605-19.73 5.061-29.667 7.302-15.816 3.568-31.14 9.242-46.478 14.409-8.331 2.806-16.919 5.092-25.425 7.341-7.873 2.082-15.373 5.128-23.067 7.762-13.341 4.567-26.749 9.233-39.78 14.672A700.447 700.447 0 0151.577 188c-3.5 1.335-6.87 2.818-10.417 4.023-1.752.595-4.331.863-5.398 2.493 2.144 2.101 7.888 2.4 10.722 2.493 11.384.373 22.825-1.728 34.195-2.222 25.042-1.088 50.358-2.539 75.438-1.6 17.97.672 35.901-1.147 53.86-.616 10.441.309 20.796.244 31.205.564 8.791.271 17.539-.29 26.311-.541 15.358-.439 30.762.558 46.106 1.3 10.095.487 20.203.288 30.306.27 9.328-.017 19.17 1.587 28.417.897 2.736-.204 5.302-1.231 8.029-1.51 4.653-.478 9.529.035 14.204.065 9.76.063 19.548.044 29.258 1.17 11.175 1.295 22.101.797 33.292.832 5.381.017 11.1.037 16.423-.264 2.896-.164 3.939-.933 1.619-2.845-2.175-1.794-5.601-2.359-8.175-3.33-3.873-1.462-7.639-3.023-11.556-4.362-4.307-1.471-8.691-2.758-13.019-4.147-5.373-1.725-10.414-4.612-15.857-6.04-9.513-2.495-19.181-4.52-28.446-7.877-4.157-1.506-7.602-3.75-11.457-5.649-4.098-2.019-9.393-2.299-13.751-3.769-10.124-3.413-20.589-5.317-30.886-8.127-11.902-3.249-23.438-7.699-35.334-10.984-12.239-3.38-24.459-6.813-36.719-10.087-4.032-1.076-7.941-2.2-12.043-3.008-3.334-.659-5.996-.125-8.89.672z" fill="#baac91"/><path d="M251.343 137.327c-.629.163-1.274.345-1.957.523-2.202.576-4.504.615-6.744 1.174a585.293 585.293 0 01-19.905 4.623c-10.611 2.259-20.894 5.852-31.185 9.122-5.59 1.777-11.351 3.224-17.059 4.648-5.282 1.318-10.314 3.247-15.477 4.915-8.952 2.892-17.948 5.846-26.69 9.288a487.782 487.782 0 01-13.454 5.086c-2.348.845-4.609 1.784-6.99 2.547-1.175.377-2.906.546-3.622 1.578 1.438 1.329 5.293 1.519 7.194 1.578 7.638.236 15.314-1.095 22.943-1.407 16.801-.689 33.787-1.608 50.616-1.014 12.057.427 24.088-.726 36.137-.39 7.005.195 13.953.154 20.937.357 5.898.172 11.768-.184 17.653-.342 10.304-.278 20.64.353 30.935.823 6.774.309 13.556.183 20.334.171 8.94-.016 17.634 2.687 26.519 1.526 9.263-1.211 17.541-2.177 27.096-1.132 7.498.82 14.829.504 22.337.526 3.611.011 7.447.023 11.019-.167 1.943-.103 2.642-.591 1.087-1.801-1.459-1.136-3.758-1.493-5.485-2.108-2.599-.926-5.125-1.914-7.754-2.762-2.89-.932-5.831-1.746-8.735-2.626-3.605-1.092-6.987-2.92-10.639-3.824-19.113-4.73-37.596-11.167-56.723-16.095-7.986-2.057-15.726-4.874-23.708-6.954-8.212-2.14-16.411-4.314-24.636-6.386-2.704-.681-5.329-1.393-8.08-1.904-2.237-.415-4.023-.077-5.964.427z" fill="#9e8f77"/><path d="M51.73 211.631c0 6.558-1.318 14.284.001 20.692.86 4.176 9.534 2.526 13.114 2.701 1.647.081 3.701.242 4.619-.865.986-1.19.71-4.46.853-5.894.34-3.4.615-6.818.615-10.282 0-1.901.826-5.734-.733-7.042-1.553-1.302-7.105-.855-9.061-.788-2.001.071-8.013-.448-9.408 1.478zm42.097-.985c1.409 3.433.246 8.289.246 11.942 0 2.951-.31 6.564.492 9.42.648 2.307.824 1.664 3.38 1.774 3.122.133 6.266.14 9.421-.117 4.045-.329 6.226.353 7.386-3.812 1.417-5.093.691-11.7.246-16.935-.176-2.072.148-2.705-1.645-3.502-4.191-1.863-11.531.132-19.526 1.23zm41.36-1.723c0 6.691.358 13.52 0 20.137-.095 1.759-.527 2.753.616 3.865 1.642 1.598 5.015.654 7.006.832 2.967.265 10.472 1.473 12.385-1.379 1.373-2.047.577-6.397.481-8.71-.15-3.581.169-7.237-.178-10.795-.186-1.908-.248-4.401-1.96-5.192-.99-.458-4.726-.05-5.875.022-4.324.271-8.465 1.808-12.475 1.22zm40.62-.985c0 4.712-.261 9.37-.438 14.057-.089 2.361-.668 5.855.131 8.1 1.503 4.227 9.546 3.501 13.196 3.145 4.979-.484 7.811.047 8.528-5.623.686-5.41-.238-10.8.001-16.235.09-2.047 1-5.02-.976-5.906-1.746-.784-5.471.435-7.309.497-4.42.151-8.491-.465-13.133 1.965zm41.113-.985c-.143 5.003.246 10.108.246 15.143 0 2.046-1.03 7.381.254 9.229 1.043 1.5 5.121.745 7.137.739 3.686-.009 7.453-.104 11.089.007 3.995.122 7.509.832 7.424-3.995-.045-2.579-.835-4.944-1.093-7.535-.259-2.61-.059-5.272-.192-7.918-.062-1.228.442-5.228-.05-6.161-.812-1.539-3.827-1.231-5.306-1.243-5.224-.043-10.905.142-19.509 1.734zm50.222.246c-.92 2.913-.199 7.418-.256 10.432-.04 2.12.012 4.248.009 6.369-.002 1.758-.623 6.867.853 8.075 1.152.944 5.645.864 7.118.953 3.677.219 8.062.465 11.724-.028 3.377-.455 6.907-.166 7.932-3.674 1.537-5.256.008-11.533.451-16.951.175-2.138.692-5.124-.969-6.215-1.775-1.165-6.005-.468-7.946-.383-4.954.217-10.079 1.489-18.916 1.422zm48.006-.492c-.017 5.052-.328 10.098-.49 15.149-.064 2.006-1.282 6.948-.227 8.832.978 1.748 4.129 1.335 5.942 1.562 3.539.442 7.364 1.034 10.913 1.003 1.46-.012 3.888.135 4.794-.931.997-1.173 1.044-5.168.98-6.617-.195-4.492-.237-8.781-.248-13.269-.004-1.681.711-5.221-.784-5.987-1.325-.679-6.755.502-8.301.503-4.434.003-8.897-.654-12.579-.245zm43.082 2.462c-.032 7.34-1.418 14.613-1.477 21.89-.017 2.013.038 3.444 1.958 3.911.622.151 3.044-.626 3.731-.696 1.816-.186 3.613-.429 5.433-.684 2.866-.401 8.596.156 9.79-2.263.996-2.017.115-5.309.004-7.433-.183-3.482-.103-7.037-.243-10.492-.08-1.978.555-4.863-1.189-5.714-1.657-.81-6.071.259-7.9.253-4.493-.018-9.08.73-10.107 1.228zm44.561-.246c2.724-.001 5.277.617 7.98.499 2.478-.109 4.918-.536 7.253.284-.556 3.294.544 7.572.532 11.038-.014 4.322.502 8.807-.047 13.009-6.434 1.128-12.305-.575-18.741-1.208-1.156-.113-2.702.448-3.397-.475-.516-.686.184-3.153.243-3.932.431-5.709-1.14-12.743.513-18.228.329.859.384-.575 1.448-.746 2.234-.36 1.931-.24 4.216-.241zm38.65 1.477c1.69 4.762.29 10.263.246 15.25-.021 2.359-1.232 6.665.86 8.141 2.332 1.645 6.84.388 9.452.481 2.526.091 5.642 1.253 8.109.212-.284-6.26-.511-13.496.283-19.666.387-3.009 1.067-4.967-2.376-5.156-6.372-.351-12.662 1.661-16.574.738z" fill="#baac91"/><path d="M51.98 271.903c1.165 24.837-3.624 52.406-4.001 77.985-.251 17.106 1.444 34.043.572 51.048-3.841.171-7.49.016-11.215-.599-5.57-.92-5.666-.03-6.025-7.62-.513-10.848-.269-22.193.666-32.915 2.152-24.67 6.089-49.375 7.3-74.196.462-9.499 2.333-16.286 12.703-13.703zm55.843.912c.219 7.893-.536 16.313-1.144 24.195-1.016 13.163-1.066 26.249-1.729 39.406-.699 13.859-2.077 28.335-.905 42.167.39 4.602 3.648 17.656.302 21.397-2.467 2.76-8.451.986-11.484.289-9.846-2.259-4.189-17.758-3.644-24.318.536-6.47 1.017-12.966 1.591-19.454 1.059-11.97 2.058-23.947 3.303-35.904 1.198-11.506.831-23.446 2.585-34.875.389-2.536.328-9.995 1.55-12.072 1.333-2.268 8.004-3.078 9.575-.831zm57.939 0c.219 7.893-.536 16.313-1.144 24.195-1.016 13.163-1.066 26.249-1.729 39.406-.699 13.859-2.077 28.335-.905 42.167 1.019 12.029 6.006 28.239-12.407 23.238-9.038-2.454-2.919-19.818-2.417-25.869.536-6.469 1.017-12.966 1.591-19.454 1.059-11.97 2.058-23.947 3.303-35.904 1.198-11.507.831-23.446 2.585-34.875.389-2.536.328-9.995 1.55-12.072 1.333-2.269 8.002-3.079 9.573-.832zm56.566 0c.219 7.893-.536 16.313-1.144 24.195-1.016 13.163-1.065 26.249-1.729 39.406-.699 13.859-2.077 28.335-.905 42.167 1.019 12.029 6.006 28.239-12.408 23.238-9.038-2.454-2.919-19.818-2.417-25.869.536-6.469 1.017-12.966 1.591-19.454 1.059-11.97 2.058-23.947 3.303-35.904 1.198-11.507.831-23.446 2.585-34.875.389-2.536.328-9.995 1.55-12.072 1.334-2.269 8.005-3.079 9.574-.832zm237.704-.912c-1.165 24.837 3.624 52.406 4.001 77.985.251 17.106-1.444 34.043-.572 51.048 3.841.171 7.49.016 11.215-.599 5.57-.92 5.666-.03 6.025-7.62.513-10.848.269-22.193-.666-32.915-2.15-24.67-6.089-49.375-7.3-74.196-.463-9.499-2.333-16.286-12.703-13.703zm-55.843.912c-.219 7.893.536 16.313 1.144 24.195 1.016 13.163 1.066 26.249 1.729 39.406.699 13.859 2.077 28.335.905 42.167-.39 4.602-3.648 17.656-.304 21.397 2.467 2.76 8.451.986 11.484.289 9.846-2.259 4.189-17.758 3.644-24.318-.536-6.47-1.017-12.966-1.591-19.454-1.059-11.97-2.058-23.947-3.303-35.904-1.198-11.506-.831-23.446-2.585-34.875-.389-2.536-.328-9.995-1.549-12.072-1.334-2.268-8.003-3.078-9.574-.831zm-57.939 0c-.219 7.893.536 16.313 1.144 24.195 1.016 13.163 1.065 26.249 1.729 39.406.699 13.859 2.077 28.335.905 42.167-1.019 12.029-6.006 28.239 12.407 23.238 9.038-2.454 2.919-19.818 2.417-25.869-.536-6.469-1.017-12.966-1.591-19.454-1.059-11.97-2.058-23.947-3.303-35.904-1.198-11.507-.831-23.446-2.586-34.875-.389-2.536-.328-9.995-1.55-12.072-1.332-2.269-8.001-3.079-9.572-.832zm-56.568 0c-.219 7.893.536 16.313 1.144 24.195 1.016 13.163 1.066 26.249 1.729 39.406.699 13.859 2.077 28.335.905 42.167-1.019 12.029-6.006 28.239 12.407 23.238 9.038-2.454 2.919-19.818 2.417-25.869-.536-6.469-1.017-12.966-1.591-19.454-1.059-11.97-2.058-23.947-3.303-35.904-1.198-11.507-.831-23.446-2.585-34.875-.389-2.536-.328-9.995-1.549-12.072-1.332-2.269-8.003-3.079-9.574-.832z" fill="#baaf99"/><path d="M511.428 441.16c-.178-2.161-.268-5.63-2.053-7.198-1.847-1.621-5.422-1.839-8.297-1.836 1.517-4.274-.069-11.319-3.812-13.256-1.337-.692-3.061-1.067-4.855-1.275.656-.953 1.099-2.183 1.254-3.794.554-5.75-.301-12.204-6.715-13.233a45.43 45.43 0 00-3.4-.402c.865-2.545.283-5.444.051-8.022-.351-3.899-.575-7.839-.959-11.746-.681-6.923-1.091-13.999-1.469-20.97-.812-14.975-3.688-29.819-4.145-44.824-.236-7.778-1.963-15.51-1.985-23.294-.017-5.697-.355-12.488-1.552-18.277 3.139-1.637 5.477-5.069 7.278-7.965a1.9 1.9 0 00.218-.568c.602-.195 1.172-.445 1.674-.812 2.381-1.74 2.654-5.301 1.537-8.124.281-.089.564-.189.844-.307 6.731-2.825 4.59-14.118 1.024-18.916-1.403-1.887-3.642-2.749-6.159-3.149.623-3.411.316-6.741.163-10.228-.126-2.867.489-6.122-.01-9.024 1.112.019 2.178-.053 3.099-.307 5.409-1.486 6.047-8.875 4.407-13.343.774-.164 1.354-.541 1.948-1.175.412-.441.719-1.928 1.078-2.26.217-.202.34-.333.408-.42.039.074.217.137.77.069 4.225-.523 6.664 3.091 10.45-.513 2.032-1.934 5.695-7.782 4.438-10.722-.786-1.838-3.557-2.738-5.569-3.397-.02-3.924-1.557-7.582-.648-11.72.825-3.759 3.019-6.297 5.226-9.343 2.129-2.938 7.242-8.035 4.776-11.932-3.39-5.36-10.558-2.149-14.52 2.717a3.958 3.958 0 00-.082-.829c-.295-1.331-.867-2.489-1.964-3.339-1.777-1.378-4.31-1.414-6.047.058-2.149 1.821-2.677 5.533-2.671 8.153.001.49.023.988.057 1.49-1.903-1.481-4.29-2.109-6.601-.549-1.565 1.057-2.099 2.658-1.916 4.482.117 1.162.501 2.407.777 3.536.031.127.073.366.129.604-1.666 1.259-1.749 3.883-.957 6.089-7.081-2.929-14.204-5.72-21.388-8.437-21.379-8.086-42.63-16.499-64.022-24.598-21.059-7.973-42.824-14.179-64.123-21.552-5.785-2.003-11.687-3.608-17.417-5.763-4.764-1.791-9.752-2.363-14.55-3.947-5.646-1.865-11.046-3.662-16.865-4.901-.291-.062-.598-.122-.897-.183-.014-.03-.021-.06-.038-.09-2.421-4.562-3.879-10.481-8.789-13.308.596-1.871 1.555-3.381 3.413-4.553 1.296-.818 2.315-1.229 3.321-2.514 1.973-2.522 3.4-5.814 1.699-8.915-1.187-2.163-3.568-2.99-5.966-2.532-.9.172-1.886.534-2.802.995.065-.309.124-.594.183-.84.425-1.795.371-3.834-.366-5.546-.737-1.713-1.769-1.951-3.264-2.808-1.603-.92-.568.666-1.171-1.31-.201-.656-.145-1.347-.432-1.996-.612-1.387-2.056-2.467-3.463-2.921-1.284-.414-2.391-.349-3.323.08-2.132-.025-3.923 1.787-4.917 3.628-.943 1.746-.718 3.642-2.605 4.33-.972.355-1.615.186-2.407 1.058-.759.835-.873 3.502-.489 5.943a17.092 17.092 0 00-1.347-.727c-2.52-1.212-6.57-1.112-8.257 1.46-1.686 2.57-1.367 7.003.609 9.303 1.624 1.89 4.062 1.984 5.956 3.283 2.291 1.569 1.464 3.684.489 5.661-1.203.748-2.297 1.87-3.342 3.632-1.562 2.63-3.345 5.599-4.557 8.51-.608.12-1.226.238-1.808.361-5.82 1.24-11.22 3.037-16.865 4.901-4.798 1.584-9.786 2.156-14.55 3.947-5.73 2.155-11.632 3.76-17.417 5.763-21.299 7.373-43.066 13.578-64.123 21.552-21.392 8.1-42.644 16.512-64.022 24.598-7.184 2.717-14.307 5.507-21.388 8.437.792-2.206.709-4.83-.957-6.089.054-.237.097-.475.129-.604.275-1.129.659-2.373.777-3.536.184-1.824-.35-3.426-1.916-4.483-2.311-1.559-4.699-.932-6.601.55.033-.501.055-1 .057-1.49.004-2.62-.523-6.332-2.671-8.153-1.737-1.472-4.27-1.436-6.047-.058-1.097.85-1.67 2.009-1.964 3.339-.06.27-.08.548-.082.829-3.962-4.866-11.13-8.076-14.52-2.717-2.465 3.898 2.648 8.994 4.777 11.932 2.207 3.046 4.401 5.584 5.226 9.343.908 4.138-.628 7.795-.648 11.72-2.012.659-4.784 1.559-5.569 3.397-1.256 2.94 2.405 8.787 4.438 10.722 3.786 3.604 6.224-.01 10.45.513.553.069.73.004.77-.069.068.086.191.218.408.42.359.331.665 1.819 1.078 2.26.594.635 1.172 1.011 1.948 1.175-1.64 4.468-1.002 11.857 4.407 13.343.921.253 1.986.325 3.099.307-.499 2.902.115 6.158-.01 9.024-.153 3.487-.46 6.818.163 10.228-2.517.399-4.756 1.262-6.159 3.149-3.566 4.798-5.708 16.091 1.024 18.916.281.117.563.218.844.307-1.118 2.824-.844 6.384 1.537 8.124.502.367 1.072.617 1.674.812.047.199.111.396.218.568 1.8 2.896 4.139 6.327 7.278 7.965-1.198 5.789-1.537 12.58-1.552 18.277-.022 7.784-1.749 15.515-1.985 23.294-.456 15.005-3.333 29.848-4.145 44.824-.378 6.971-.788 14.047-1.469 20.97-.384 3.906-.608 7.847-.959 11.746-.233 2.578-.814 5.477.051 8.022a45.43 45.43 0 00-3.4.402c-6.414 1.028-7.269 7.483-6.715 13.233.155 1.612.598 2.842 1.254 3.794-1.794.208-3.516.583-4.855 1.275-3.744 1.937-5.33 8.982-3.812 13.256-2.875-.003-6.45.215-8.297 1.836-1.786 1.568-1.875 5.036-2.054 7.198-.281 3.405-1.384 7.47.584 10.54 3.531 5.511 15.159 4.271 20.818 4.573 10.413.557 20.956-.05 31.372-.23 18.751-.325 37.561-1.657 56.299-2.176 10.342-.286 20.713-.045 31.056-.306 10.893-.275 22.171-.275 33.039.425 10.769.694 21.578.346 32.365.738 4.189.153 8.389.349 12.587.28 3.886.779 8.246.376 11.992.546 8.64.393 17.306.534 25.95 1.02 7.756.437 15.779-.335 23.557-.802 3.678-.222 7.272-.477 10.846-.846 4.961.211 9.927-.019 14.877-.199 10.786-.392 21.597-.045 32.365-.738 10.868-.699 22.147-.7 33.039-.425 10.342.26 20.714.02 31.056.306 18.739.518 37.548 1.85 56.299 2.176 10.416.181 20.959.788 31.372.23 5.659-.302 17.289.937 20.818-4.573 1.951-3.07.85-7.135.569-10.54zm-36.188-91.097c1.637 13.342 1.912 26.989 2.967 40.399.193 2.457 1.358 7.28-1.295 8.424-1.043.45-2.965.304-4.532.233-3.653-.434-7.428-.572-10.679-.546-3.439.028-6.887.125-10.334.198-.135-.029-.281-.053-.396-.093-3.916-1.367-2.268-5.831-2.299-9.277-.03-3.458-.018-6.919-.091-10.375-.123-5.776.782-11.569.7-17.355-.082-5.811.153-11.816.471-17.632.695-12.713.515-25.375 1.747-38.072.586-6.039 1.328-12.015 1.906-18.055.397-4.15.963-8.71.577-13.011 2.784.342 5.888.101 9.191-.12 1.897-.126 4.046-.174 6.089-.478.105 5.373 1.088 10.586 1.322 16.014.301 6.979.814 13.973 1.367 20.942 1.025 12.926 1.707 25.916 3.289 38.804zm-31.91 48.786a134.067 134.067 0 01-6.342-.188 445.629 445.629 0 00-9.906-.437c.194-2.017-.181-4.141-.356-6.082-.351-3.899-.574-7.839-.959-11.746-.681-6.923-1.091-13.999-1.469-20.97-.812-14.975-3.688-29.819-4.145-44.824-.236-7.778-1.963-15.51-1.985-23.294-.017-5.697-.355-12.488-1.552-18.277 3.139-1.637 5.477-5.069 7.278-7.965a1.9 1.9 0 00.218-.568c.602-.195 1.172-.445 1.674-.812 2.061-1.507 2.536-4.375 1.904-6.951 3.647.06 7.274.008 10.935-.133-.843 3.508.623 7.822 4.053 9.188.388.154.8.255 1.222.333.006.394.076.801.27 1.249 1.431 3.304 3.333 5.241 5.586 6.35-1.518 4.764-1.09 10.416-1.52 15.246-.609 6.843-1.77 13.642-2.322 20.5-1.103 13.715-1.615 27.589-1.663 41.348-.048 14.2-1.209 28.287-1.344 42.538-.018 1.891.019 3.805.423 5.495zm-73.179-3.851c1.957.263 4.345-.137 5.796-.284 1.209-.122 2.477-.145 3.76-.162 1.817.076 3.662.069 5.425-.299.304-.044.607-.088.904-.148.001 1.685.073 3.364.449 4.86-5.438.148-10.898.033-16.361-.141.198-1.247.144-2.546.027-3.826zm15.943-4.711c-.474-.023-.954.055-1.594.079-.332.012-.667.006-1 .006a28.416 28.416 0 00-1.731-.04 97.122 97.122 0 01-3.973-.293c-1.649-.145-4.336-.429-6.229.3-.635-.027-1.26-.016-1.846.091-.274-3.339-.494-6.696-.823-10.033-.681-6.923-1.091-13.999-1.469-20.97-.812-14.975-3.688-29.819-4.143-44.824-.236-7.778-1.963-15.51-1.985-23.294-.017-5.697-.355-12.488-1.552-18.277 3.139-1.637 5.477-5.069 7.278-7.965a1.9 1.9 0 00.218-.568c.602-.195 1.172-.445 1.674-.812 2.001-1.462 2.51-4.21 1.961-6.726 2.332-.145 4.661-.276 6.982-.322 1.301-.027 2.604-.052 3.906-.078-.864 3.515.599 7.857 4.042 9.229.388.154.8.255 1.222.333.006.394.076.801.27 1.249 1.431 3.304 3.333 5.241 5.586 6.35-1.518 4.764-1.09 10.416-1.521 15.246-.609 6.843-1.77 13.642-2.322 20.5-1.103 13.715-1.615 27.589-1.662 41.348-.047 13.18-1.037 26.264-1.289 39.471zm-72.901 3.828c2.46.386 5.162.003 7.555-.178 2.777-.211 5.636.009 8.418-.311-.011 1.686.03 3.383.351 4.915-2.78.045-5.56.088-8.335.154-2.492.06-5.174-.02-7.9-.048.204-1.482.074-3.03-.089-4.532zm16.045-4.909c-2.623-.401-5.81-.052-7.883.061-2.673.146-5.835-.185-8.568.381-.244-3.082-.458-6.174-.76-9.251-.681-6.923-1.091-13.999-1.469-20.97-.812-14.975-3.688-29.819-4.145-44.824-.236-7.778-1.963-15.51-1.985-23.294-.017-5.697-.355-12.488-1.552-18.277 3.139-1.637 5.477-5.069 7.278-7.965a1.9 1.9 0 00.218-.568c.602-.195 1.172-.445 1.674-.812 2.052-1.5 2.533-4.35 1.913-6.915a122.2 122.2 0 004.471.12c2.124.014 4.233.138 6.34.27-.569 3.395.916 7.335 4.166 8.629.388.154.8.255 1.222.333.006.394.076.801.27 1.249 1.431 3.304 3.333 5.241 5.586 6.35-1.518 4.764-1.09 10.416-1.521 15.246-.609 6.843-1.77 13.642-2.322 20.5-1.103 13.715-1.615 27.589-1.662 41.348-.043 12.82-.986 25.548-1.271 38.389zm-75.426-80.994c.195 3.388.283 6.813.332 10.245-.448 0-.897-.007-1.344-.002-3.327.034-6.594-.296-9.912-.462-.476-.024-3.917.075-5.586.434a473.381 473.381 0 00-.625-8.957c-.472-5.864-1.37-11.685-2.007-17.527.828.025 1.702-.047 2.673-.071 5.028-.123 9.977.594 14.966.36.403-.019.81-.03 1.216-.04-.002 1.668.194 3.395.284 4.823.235 3.742-.215 7.426.003 11.197zm-11.525 14.23c2.923.28 5.844.655 8.795.766 1.037.039 2.073.047 3.11.068.011 3.33.002 6.657-.002 9.953-.006 3.922-.016 7.845-.023 11.767-5.214.05-10.878.12-15.87 1.235a560.773 560.773 0 00-.787-24.172c1.539.312 3.192.232 4.777.383zm12.039 68.728c-2.36.062-4.716.121-7.093.259-2.64.154-5.166-.099-7.572.551-.072-5.133-.267-10.246-.486-15.351.789.074 1.594.093 2.52.105 4.069.053 8.189.531 12.237.449l.174-.002-.002 1.014c-.008 4.245-.593 8.779.222 12.975zm-.169-41.258c-.009 4.522-.017 9.045-.027 13.567l-.016 8.5c-.317.008-.634.01-.949.02-4.903.157-9.533-.107-14.155.828-.322-7.332-.643-14.655-.668-22.008-.001-.474-.011-.951-.014-1.425 5.182 1.092 10.55.615 15.829.518zm-14.481 45.316c2.402.682 5.03.576 7.558.503 3.872-.112 7.651.073 11.49-.258 3.043-.263 9.618 1.286 13.592.102.04 1.213.151 2.432.482 3.556-1.861.028-3.718.093-5.543.103l-19.754.107c-2.796.016-5.595.032-8.393.034.423-1.295.538-2.731.568-4.147zm32.659-4.235c-1.169-.153-2.412-.083-3.495-.074-3.244.023-6.492.021-9.731.117.548-4.537.626-9.222.559-13.922 2.354-.02 4.711-.042 7.058-.098 2.083-.049 4.184.072 6.082-.461-.204 4.804-.391 9.612-.473 14.438zm-1.085-19.498c-1.472-.068-3.043.309-4.523.346-2.393.058-4.783.06-7.172.069-.103-3.569-.226-7.119-.233-10.59l-.021-11.356c4.779.136 9.639.359 14.346-.222-.001.359-.009.718-.01 1.076-.023 6.932-.309 13.836-.612 20.747-.683-.075-1.59-.062-1.775-.07zm-3.423-26.529c-2.802.175-5.687.052-8.534.009-.009-4.995-.016-9.991-.028-14.987-.006-2.202-.012-4.43-.034-6.666 5.077-.02 10.147-.206 15.201-.525a564.05 564.05 0 00-.739 22.209c-2.096-.615-3.565-.184-5.866-.04zm-1.126-26.565c-2.502.126-5.024.116-7.547.09-.095-3.891-.28-7.776-.646-11.574-.427-4.437.705-10.045-.442-14.696 6.407.198 13.026.881 19.221-.086-.636 5.778-1.52 11.535-1.986 17.335a481.92 481.92 0 00-.607 8.714c-2.719-.264-5.262.079-7.993.217zm10.005-31.648c-3.213.517-6.95.002-10.205-.014-4.096-.021-8.13.152-12.196.082-4.059-.07-8.242.069-12.321.137-2.436.04-5.199.645-7.711.803-.284-4.548-.044-9.664-1.438-14.038 2.255-1.108 4.156-3.046 5.586-6.35a3.16 3.16 0 00.27-1.249 6.592 6.592 0 001.222-.333c3.791-1.51 5.185-6.623 3.706-10.266 2.523.025 5.045.05 7.567.053 5.708.008 11.438.109 17.15-.001-1.445 3.639-.049 8.711 3.726 10.215.388.154.8.255 1.222.333.006.394.076.801.27 1.249 1.431 3.304 3.331 5.241 5.586 6.35-1.293 4.06-1.177 8.762-1.379 13.054a2.893 2.893 0 00-1.055-.025zm-78.008 111.892c-2.727.028-5.409.109-7.9.048-2.774-.066-5.555-.109-8.335-.154.321-1.531.362-3.228.351-4.915 2.782.32 5.64.101 8.418.311 2.392.182 5.094.564 7.555.178-.163 1.504-.295 3.052-.089 4.532zm-8.075-9.378c-2.073-.113-5.259-.462-7.883-.061-.284-12.84-1.226-25.569-1.271-38.389-.048-13.76-.559-27.635-1.663-41.348-.552-6.859-1.713-13.657-2.322-20.5-.43-4.829-.003-10.482-1.521-15.246 2.255-1.108 4.156-3.046 5.587-6.35a3.16 3.16 0 00.27-1.249 6.592 6.592 0 001.222-.333c3.249-1.294 4.735-5.235 4.166-8.629 2.107-.132 4.217-.255 6.34-.27 1.503-.01 2.99-.054 4.471-.12-.619 2.567-.138 5.416 1.913 6.915.502.367 1.072.617 1.674.812.048.199.111.396.218.568 1.8 2.896 4.139 6.327 7.278 7.965-1.198 5.789-1.537 12.58-1.552 18.277-.022 7.784-1.749 15.515-1.985 23.294-.456 15.005-3.333 29.848-4.145 44.824-.378 6.971-.788 14.047-1.469 20.97-.302 3.077-.516 6.17-.76 9.251-2.733-.566-5.895-.235-8.568-.381zm-48.769 9.556c-5.463.174-10.924.289-16.361.141.374-1.496.446-3.175.449-4.86.297.061.6.104.904.148 1.764.368 3.608.376 5.425.299 1.284.017 2.551.04 3.76.162 1.45.146 3.839.546 5.796.284-.116 1.281-.17 2.58.027 3.826zm-1.441-8.484c-1.892-.73-4.58-.446-6.229-.3-1.31.115-2.641.229-3.973.293a29.286 29.286 0 00-1.731.04c-.333 0-.668.006-1-.006-.641-.023-1.12-.102-1.594-.079-.253-13.207-1.242-26.29-1.287-39.47-.047-13.76-.559-27.635-1.662-41.348-.552-6.859-1.713-13.657-2.322-20.5-.43-4.829-.003-10.482-1.521-15.246 2.255-1.108 4.156-3.046 5.586-6.35a3.16 3.16 0 00.27-1.249 6.592 6.592 0 001.222-.333c3.443-1.372 4.906-5.713 4.042-9.229 1.303.025 2.607.051 3.906.078 2.32.047 4.65.178 6.982.322-.55 2.516-.04 5.264 1.961 6.726.502.367 1.072.617 1.674.812.047.199.111.396.218.568 1.8 2.896 4.139 6.327 7.278 7.965-1.198 5.789-1.537 12.58-1.552 18.277-.022 7.784-1.749 15.515-1.985 23.294-.456 15.005-3.333 29.848-4.143 44.824-.378 6.971-.788 14.047-1.469 20.97-.329 3.337-.55 6.694-.823 10.033-.589-.107-1.214-.118-1.848-.092zm-55.518 7.885c-3.308.11-6.611.253-9.906.437-2.111.117-4.224.172-6.342.188.403-1.691.441-3.605.423-5.493-.136-14.252-1.296-28.339-1.344-42.538-.047-13.76-.559-27.635-1.662-41.348-.552-6.859-1.713-13.657-2.322-20.5-.43-4.829-.003-10.482-1.521-15.246 2.255-1.108 4.156-3.046 5.586-6.35a3.16 3.16 0 00.27-1.249 6.592 6.592 0 001.222-.333c3.429-1.366 4.895-5.679 4.053-9.188 3.659.141 7.287.193 10.935.133-.633 2.576-.157 5.445 1.903 6.951.502.367 1.072.617 1.674.812.047.199.111.396.218.568 1.8 2.896 4.139 6.327 7.278 7.965-1.198 5.789-1.537 12.58-1.552 18.277-.022 7.784-1.749 15.515-1.985 23.294-.456 15.005-3.333 29.848-4.145 44.824-.378 6.971-.788 14.047-1.469 20.97-.384 3.906-.608 7.847-.959 11.746-.174 1.94-.549 4.062-.355 6.08zm31.288-137.103c-4.519.006-9.043-.098-13.543-.401-1.815-.122-3.617-.212-5.431-.306-.908-.048-5.646.069-6.36-.363-2.859-1.726-2.074-2.82-.431-3.484 10.805-.36 21.688-.31 32.515-.135 2.411.951 4.561 2.733.733 4.755-1.417.747-5.813-.068-7.483-.066zm3.416 5.022c-.201.299-.417.602-.669.902-2.204 2.618-4.617 2.881-7.67 2.69-3.103-.194-6.401-.039-9.47-.591-2.803-.504-5.046-1.517-7.16-3.406a6.897 6.897 0 01-.608-.638c.347.012.687.028 1.011.055 3.345.28 6.757.439 10.111.569 4.382.171 8.71.358 13.11.368.432.002.885.024 1.345.051zM90.643 390.462c1.055-13.41 1.329-27.057 2.967-40.399 1.582-12.889 2.263-25.878 3.289-38.803.553-6.97 1.066-13.965 1.367-20.942.235-5.429 1.216-10.641 1.322-16.014 2.043.304 4.192.351 6.089.478 3.303.22 6.407.462 9.191.12-.386 4.301.182 8.861.577 13.011.577 6.04 1.319 12.016 1.906 18.055 1.232 12.697 1.052 25.359 1.747 38.072.318 5.818.553 11.821.471 17.632-.082 5.786.823 11.578.7 17.355-.073 3.457-.061 6.918-.091 10.375-.03 3.391 1.553 7.76-2.126 9.202-9.006-.552-18.065-.704-27.109-.538-1.299-1.822-.462-5.541-.3-7.604zm82.411-129.341c-4.519.006-9.043-.098-13.543-.401-1.815-.122-3.617-.212-5.431-.306-.908-.048-5.646.069-6.36-.363-2.019-1.219-2.217-2.12-1.585-2.781 2.715.154 5.428.265 8.125.223 6.995-.111 14.026-.715 21.007-.133 2.155.179 4.297.175 6.437.099 1.256.982 1.547 2.294-1.165 3.727-1.418.748-5.815-.067-7.485-.065zm3.417 5.022c-.201.299-.417.602-.669.902-2.204 2.618-4.617 2.881-7.67 2.69-3.103-.194-6.401-.039-9.47-.591-2.803-.504-5.046-1.517-7.16-3.406a6.897 6.897 0 01-.608-.638c.347.012.687.028 1.011.055 3.345.28 6.757.439 10.111.569 4.382.171 8.71.358 13.11.368.431.002.884.024 1.345.051zm-28.956 124.319c1.055-13.41 1.329-27.057 2.967-40.399 1.582-12.889 2.263-25.878 3.289-38.803.553-6.97 1.066-13.965 1.367-20.942.235-5.429 1.216-10.641 1.322-16.014 2.043.304 4.192.351 6.089.478 3.303.22 6.407.462 9.191.12-.386 4.301.182 8.861.577 13.011.576 6.04 1.319 12.016 1.906 18.055 1.232 12.697 1.052 25.359 1.747 38.072.318 5.818.553 11.821.471 17.632-.082 5.786.823 11.578.7 17.355-.073 3.457-.061 6.918-.091 10.375-.029 3.257 1.436 7.419-1.709 9.021-3.084-.042-6.17-.082-9.246-.127-5.901-.086-11.83.102-17.766.309-2.017-1.502-.994-5.85-.814-8.143zm82.411-129.341c-4.519.006-9.043-.098-13.543-.401-1.815-.122-3.617-.212-5.431-.306-.908-.048-5.646.069-6.36-.363-3.436-2.074-1.612-3.234.64-3.837 1.479-.157 2.962-.341 4.446-.555 2.129.018 4.22.384 6.337.394 1.709.009 3.478-.064 5.252-.163 4.19-.009 8.403-.479 12.584-.179 2.231.16 9.051 2.573 3.557 5.474-1.416.749-5.812-.066-7.482-.064zm3.416 5.022c-.201.299-.417.602-.669.902-2.204 2.618-4.617 2.881-7.67 2.69-3.103-.194-6.401-.039-9.47-.591-2.803-.504-5.046-1.517-7.16-3.406a6.897 6.897 0 01-.608-.638c.348.012.687.028 1.011.055 3.345.28 6.757.439 10.111.569 4.382.171 8.71.358 13.11.368.432.002.885.024 1.345.051zm-28.956 124.319c1.055-13.41 1.329-27.057 2.967-40.399 1.582-12.889 2.263-25.878 3.289-38.803.553-6.97 1.066-13.965 1.367-20.942.234-5.429 1.216-10.641 1.322-16.014 2.043.304 4.192.351 6.089.478 3.303.22 6.407.462 9.191.12-.386 4.301.182 8.861.577 13.011.577 6.04 1.319 12.016 1.906 18.055 1.231 12.697 1.052 25.359 1.747 38.072.318 5.818.553 11.821.471 17.632-.082 5.786.823 11.578.7 17.355-.073 3.457-.061 6.918-.091 10.375-.031 3.447 1.618 7.91-2.299 9.277-1.552.542-5.173.027-6.996.23-2.495.278-4.994.481-7.506.464-1.852-.012-3.59-.168-5.431-.273-.732-.041-1.781.04-2.835.079a40.64 40.64 0 00-3.318-.376c-2.452-1.262-1.339-5.932-1.15-8.341zm96.641-130.049c-1.815.094-3.617.184-5.431.306-4.501.304-9.024.407-13.543.401-1.67-.002-6.066.813-7.484.064-5.494-2.902 1.326-5.315 3.557-5.474 4.181-.299 8.394.171 12.584.179 1.775.1 3.543.172 5.252.163 2.117-.01 4.208-.378 6.337-.394 1.483.214 2.966.399 4.446.555 2.252.603 4.075 1.763.64 3.837-.712.432-5.45.316-6.358.363zm3.186 4.689c-.199.232-.4.452-.608.638-2.113 1.889-4.357 2.902-7.16 3.406-3.069.552-6.367.396-9.47.59-3.053.192-5.466-.072-7.67-2.69-.253-.3-.468-.603-.669-.902.46-.027.913-.049 1.345-.05 4.399-.01 8.729-.198 13.11-.368 3.354-.131 6.766-.289 10.111-.569.324-.028.665-.044 1.011-.055zm-26.156 124.3c-.03-3.458-.018-6.919-.091-10.375-.123-5.777.782-11.569.7-17.355-.082-5.811.153-11.816.471-17.632.695-12.713.515-25.375 1.747-38.072.586-6.039 1.328-12.015 1.906-18.055.397-4.15.963-8.71.577-13.011 2.784.342 5.888.101 9.191-.12 1.897-.126 4.046-.174 6.089-.477.105 5.373 1.088 10.586 1.322 16.014.301 6.979.814 13.973 1.367 20.942 1.026 12.925 1.707 25.915 3.289 38.803 1.637 13.342 1.912 26.989 2.967 40.399.189 2.409 1.302 7.078-1.15 8.342a39.776 39.776 0 00-3.318.376c-1.054-.039-2.103-.12-2.835-.079-1.841.104-3.578.259-5.431.273-2.513.017-5.012-.186-7.506-.464-1.825-.204-5.445.311-6.996-.23-3.916-1.369-2.268-5.833-2.299-9.279zm79.841-128.989c-1.815.094-3.617.184-5.431.306-4.501.304-9.024.407-13.543.401-1.67-.002-6.066.813-7.484.064-2.712-1.432-2.422-2.745-1.165-3.727 2.139.076 4.282.081 6.437-.099 6.982-.583 14.011.022 21.007.133 2.698.042 5.41-.069 8.125-.223.632.66.433 1.562-1.585 2.781-.714.433-5.452.317-6.361.364zm3.186 4.689c-.199.232-.4.452-.608.638-2.113 1.889-4.357 2.902-7.16 3.406-3.069.552-6.367.396-9.47.59-3.053.192-5.466-.072-7.67-2.69-.253-.3-.468-.603-.669-.902.46-.027.913-.049 1.345-.05 4.399-.01 8.729-.198 13.11-.368 3.354-.131 6.766-.289 10.111-.569a18.92 18.92 0 011.011-.055zm-26.247 113.924c-.123-5.777.782-11.569.7-17.355-.082-5.811.153-11.816.471-17.632.695-12.713.515-25.375 1.747-38.072.586-6.039 1.328-12.015 1.906-18.055.397-4.15.963-8.71.578-13.011 2.784.342 5.888.101 9.191-.12 1.897-.126 4.046-.174 6.089-.477.105 5.373 1.088 10.586 1.322 16.014.301 6.979.814 13.973 1.367 20.942 1.026 12.925 1.707 25.915 3.289 38.803 1.637 13.342 1.912 26.989 2.967 40.399.181 2.292 1.203 6.641-.814 8.143-5.935-.208-11.865-.396-17.766-.309-3.077.045-6.162.085-9.246.127-3.144-1.602-1.681-5.763-1.709-9.022-.031-3.457-.017-6.918-.092-10.375zm79.933-118.613c-1.815.094-3.617.184-5.431.306-4.501.304-9.024.407-13.543.401-1.67-.002-6.066.813-7.484.064-3.828-2.022-1.677-3.804.733-4.755 10.827-.175 21.71-.225 32.515.135 1.643.666 2.43 1.758-.431 3.484-.713.434-5.451.318-6.359.365zm3.186 4.689c-.199.232-.4.452-.608.638-2.113 1.889-4.357 2.902-7.16 3.406-3.069.552-6.367.396-9.47.59-3.053.192-5.466-.072-7.67-2.69-.253-.3-.468-.603-.669-.902.46-.027.913-.049 1.345-.05 4.399-.01 8.729-.198 13.111-.368 3.354-.131 6.766-.289 10.111-.569a18.71 18.71 0 011.01-.055zM391.71 379.026c-.123-5.777.782-11.569.7-17.355-.082-5.811.153-11.816.471-17.632.695-12.713.515-25.375 1.747-38.072.586-6.039 1.328-12.015 1.906-18.055.397-4.15.963-8.71.578-13.011 2.784.342 5.888.101 9.191-.12 1.897-.126 4.046-.174 6.089-.477.105 5.373 1.088 10.586 1.322 16.014.301 6.979.814 13.973 1.367 20.942 1.026 12.925 1.707 25.915 3.289 38.803 1.637 13.342 1.912 26.989 2.967 40.399.162 2.063.999 5.782-.3 7.603-9.044-.166-18.104-.013-27.109.538-3.679-1.442-2.096-5.811-2.126-9.202-.033-3.457-.019-6.918-.092-10.375zm82.509-113.287c-2.113 1.889-4.357 2.902-7.16 3.406-3.069.552-6.367.396-9.47.59-3.053.192-5.466-.072-7.67-2.69-.253-.3-.468-.603-.669-.902.46-.027.913-.049 1.345-.05 4.399-.01 8.729-.198 13.11-.368 3.354-.131 6.766-.289 10.111-.569.325-.027.664-.043 1.011-.055a6.647 6.647 0 01-.608.638zm3.783-5.688c-.715.431-5.452.316-6.36.363-1.815.094-3.617.184-5.431.306-4.501.304-9.024.407-13.543.401-1.67-.002-6.066.813-7.484.064-3.913-2.067-1.579-3.885.895-4.818 2.914-.025 6.117-.075 8.951-.682 2.101.081 4.202.201 6.297.205 1.775.1 3.543.172 5.252.163 2.42-.012 4.8-.52 7.25-.4 1.517.075 9.733 1.041 4.173 4.398zm8.382-64.283c-.636.324-4.511-1.393-5.334-1.64-.101-.03-.195-.054-.294-.083-4.849-2.456-9.849-4.562-14.92-6.507l.019-.104c.09-.473.33-.893.424-1.368.035-.179.039-.357.049-.535 2.108.859 4.219 1.697 6.33 2.497 4.254 1.612 8.271 3.509 12.456 5.231.636.263 1.298.521 1.975.763-.269.743-.552 1.668-.705 1.746zM64.827 185.68c15.371-3.987 29.553-11.723 44.762-16.324 7.244-2.191 14.508-4.376 21.664-6.83 7.418-2.544 14.857-4.578 22.312-6.969 15.067-4.833 30.255-9.188 45.388-13.718 15.107-4.522 30.634-7.976 45.585-12.896 2.212-.381 4.426-.774 6.683-1.148 3.654-.605 6.464-.266 10.003.622 2.488.624 4.886 1.358 7.431.926 14.578 4.711 29.674 8.094 44.372 12.495 15.133 4.53 30.321 8.885 45.388 13.718 7.455 2.391 14.893 4.425 22.312 6.969 7.156 2.455 14.419 4.639 21.664 6.83 15.21 4.601 29.391 12.336 44.763 16.324 7.498 1.945 14.904 5.436 22.195 8.109.497.182.985.369 1.478.553-7.555-.676-14.939-1.181-22.584-1.436-17.091-.569-34.199-1.395-51.307-2.087-17.496-.708-35.025-.961-52.543-1.343-8.905-.195-17.82-.479-26.722-.615-2.802-.043-5.629-.101-8.458-.09-18.046-.751-36.015-1.819-54.158-1.603-9.05.107-18.236.571-27.253 1.229-5.718.418-11.458.031-17.189.454-.682.051-1.36.075-2.035.088-4.751-.268-9.544-.15-14.266-.078-8.902.136-17.817.42-26.722.615-17.518.382-35.046.635-52.541 1.343-17.108.692-34.216 1.518-51.307 2.087-7.647.255-15.03.76-22.584 1.436.493-.184.98-.37 1.478-.553 7.287-2.672 14.693-6.163 22.191-8.108zm-16.602-1.218a485.582 485.582 0 0013.346-5.815c2.255-1.02 4.522-2.036 6.798-3.047.506 1.061.485 2.546.819 3.754-.17.06-.337.124-.505.183-6.503 2.299-13.059 4.473-19.521 6.861a4.138 4.138 0 00-.27-.679c-.237-.463-.608-.754-.667-1.257zM70.86 174.5c6.821-3.007 13.726-5.939 20.674-8.708.029.205.065.41.092.605.104.768.186 1.519.443 2.253.206.587.419 1.206.709 1.763-6.604 2.544-13.186 5.141-19.842 7.582a10.292 10.292 0 00-.573-1.479c-.38-.79-.903-1.43-1.503-2.016zm23.176-9.701a388.141 388.141 0 0115.166-5.603c3.037-1.046 6.071-2.086 9.107-3.128.085.559.138 1.133.246 1.647.227 1.09.687 2.009 1.075 3.043l.052.132c-1.678.553-3.358 1.1-5.04 1.641-6.073 1.954-12.042 4.139-17.978 6.396-.174-.637-.485-1.246-.853-1.857-.347-.576-.667-1.225-1.139-1.714-.196-.202-.416-.378-.636-.557zm27.51-9.842a8566.487 8566.487 0 0019.257-6.622c.13 1.332.5 2.639.696 3.966.039.261.095.538.162.819a88.49 88.49 0 00-5.676 1.975c-4.012 1.568-8.07 3.012-12.148 4.399a14.42 14.42 0 00-.307-.691c-.599-1.246-1.177-2.651-1.984-3.846zm22.374-7.71c4.733-1.641 9.465-3.282 14.193-4.953a480.75 480.75 0 016.719-2.314c.279 1.637.877 3.259 1.245 4.853.052.224.119.474.197.735-2.585.823-5.165 1.66-7.727 2.534-3.999 1.364-8.103 2.458-12.178 3.621a13.985 13.985 0 00-.484-1.486c-.286-.738-.595-1.411-1.107-2.021-.271-.329-.584-.637-.858-.969zm24.282-8.384c7.562-2.489 15.157-4.792 22.79-7.016.014.022.022.044.038.065 1.174 1.649.823 4.032 1.388 5.924-7.271 2.057-14.551 4.132-21.77 6.357l-.001-.002c-.187-1.005-.579-1.942-.985-2.876-.34-.783-1.05-1.615-1.46-2.452zm26.548-8.109c3.763-1.082 7.536-2.153 11.326-3.211 3.105-.866 6.217-1.768 9.333-2.668-.019 1.372.041 2.731.404 4.093.179.674.296 1.32.493 1.916-3.696 1.121-7.362 2.248-10.98 3.287-2.895.831-5.799 1.653-8.706 2.475-.05-.651-.152-1.291-.232-1.842-.227-1.572-.764-2.859-1.638-4.05zm44.816-5.913c-6.44 1.18-12.88 2.944-19.249 4.837-.093-1.976-.751-3.933-.965-5.932 3.864-1.101 7.735-2.175 11.618-3.136 2.7-.669 5.411-1.403 8.123-2.115.023.358.08.716.122 1.112.088.838-.08 1.676-.156 2.512-.089.982.084 1.907.507 2.722zm30.054-.467a99.32 99.32 0 00-2.471-.359c-1.933-.761-4.217-1.044-6.042-1.495-3.597-.886-7.391-.612-11.016.066-1.814.339-3.935.741-6.061 1.313-.209-.396-.492-.738-.648-1.138-.212-.538-.074-1.45-.126-2.034-.104-1.178-.451-2.136-1.066-3.025.526-.132 1.052-.268 1.578-.394 1.517-.064 3.177-.489 4.727-.892.59-.096 1.168-.219 1.696-.423a14.1 14.1 0 011.529-.281c3.273-.373 6.492.073 9.741.12 1.417.67 3.243.664 4.799 1.01 1.605.358 3.213.76 4.822 1.173.001.111.007.219.033.329-.776 1.913-1.704 4.024-1.495 6.03zm4.559-5.548c2.28.606 4.559 1.221 6.829 1.784 3.883.962 7.755 2.035 11.618 3.136-.214 1.999-.872 3.955-.965 5.932-5.884-1.749-11.832-3.385-17.782-4.553.074-.505.071-1.029.069-1.565-.006-1.038.114-1.966.237-2.99.069-.564.084-1.177-.006-1.744zm21.495 12.058c.196-.596.314-1.242.493-1.916.363-1.362.423-2.721.404-4.093 3.115.9 6.227 1.8 9.333 2.668a1463.75 1463.75 0 0111.326 3.211c-.875 1.192-1.411 2.478-1.639 4.05-.08.552-.182 1.19-.232 1.842-2.907-.822-5.811-1.644-8.706-2.475-3.619-1.04-7.283-2.166-10.979-3.287zm23.887 6.952c.565-1.893.214-4.275 1.388-5.924.016-.022.023-.043.038-.065 7.633 2.226 15.228 4.528 22.79 7.016-.41.838-1.12 1.67-1.46 2.451-.405.934-.799 1.871-.985 2.876l-.001.002c-7.219-2.224-14.499-4.299-21.77-6.356zm26.141 7.731a11.5 11.5 0 00.197-.735c.368-1.593.966-3.214 1.245-4.853a452.13 452.13 0 016.719 2.314c4.728 1.672 9.46 3.313 14.193 4.953-.274.332-.586.639-.861.966-.511.609-.82 1.283-1.107 2.021a14.06 14.06 0 00-.484 1.486c-4.075-1.162-8.178-2.257-12.178-3.621a407.666 407.666 0 00-7.724-2.531zm24.615 7.552c.066-.28.123-.557.161-.819.196-1.327.566-2.635.696-3.966a9099.784 9099.784 0 0019.257 6.622c-.807 1.195-1.385 2.601-1.983 3.847a14.42 14.42 0 00-.307.691c-4.078-1.387-8.136-2.831-12.148-4.399a86.874 86.874 0 00-5.676-1.976zm21.98 7.772l.052-.132c.388-1.035.849-1.953 1.075-3.043.107-.514.161-1.088.246-1.647 3.034 1.041 6.07 2.082 9.106 3.128a388.141 388.141 0 0115.166 5.603c-.219.178-.44.356-.636.558-.472.489-.792 1.138-1.139 1.714-.368.61-.679 1.22-.853 1.857-5.936-2.257-11.904-4.442-17.978-6.396a897.021 897.021 0 01-5.039-1.642zm26.905 9.521c.29-.556.503-1.175.709-1.763.258-.733.339-1.486.443-2.253.027-.194.063-.399.092-.605 6.949 2.769 13.853 5.701 20.674 8.708-.6.586-1.123 1.225-1.502 2.015-.208.434-.414.951-.573 1.479-6.657-2.441-13.239-5.036-19.843-7.581zm23.589 8.942c.333-1.208.311-2.692.819-3.754a998.188 998.188 0 016.798 3.047 481.229 481.229 0 0013.346 5.815c-.059.503-.43.794-.666 1.256a4.21 4.21 0 00-.27.679c-6.462-2.389-13.018-4.562-19.521-6.861-.169-.059-.337-.123-.506-.182zm37.081-11.435c.607-.792 1.616-.553 1.849-1.964.284-1.722-1.143-3.471-1.157-5.143-.027-3.233 3.232-1.329 5.271.084.43 1.54 1.085 3.003 2.056 4.247 1.003 1.282 2.587-.185 2.405-1.4-.555-3.724-1.172-7.745-.793-11.52.063-.338.091-.679.083-1.024-.199-2.813 3.645-.152 4.061 1.281.627 2.157-.811 4.371-.434 6.585.173 1.018 1.589 1.002 2.064.266 1.086-1.682 1.532-3.633 2.574-5.306.637-1.024 1.753-2.341 2.845-2.888 1.244-.623 5.022-1.084 5.744.588.399.923-6.133 8.913-6.948 10.448-2.473 4.663-4.341 13.157-1.602 18.518a81.438 81.438 0 01-2.658-1.144c.017-1.015-.388-1.902-.635-3.007-.34-1.523-.373-3.166-.47-4.724-.096-1.574-.686-4.146-.028-5.733.102-.245-.32-.419-.427-.179-.85 1.89-1.801 3.881-2.181 5.922-.3 1.612-.434 4.045.123 6.06l-2.247-1.064c-.135-.606-.358-1.219-.436-1.612-.243-1.212-.259-2.447-.423-3.669-.113-.843-.062-1.763-.524-2.492-.112-.176-.399-.251-.551-.071-1.385 1.646-1.462 4.215-1.005 6.491-.533-.242-1.061-.491-1.601-.725-1.016-.44-2.036-.862-3.053-1.294-.552-1.694-2.837-4.311-1.902-5.531zM241.165 79.302c-3.392-2.139-3.17-7.801 1.508-6.35 3.952 1.225 3.755 5.002 6.38 7.311 1.139 1 3.11.058 2.648-1.541-.517-1.787-1.141-3.275-1.982-4.561.027-.153.035-.311.007-.479-.268-1.532-.398-3.317-.557-4.876-.253-2.465.741-1.293 2.423-2.212 1.056-.577 1.465-1.445 1.75-2.568.607-2.386.648-4.003 2.185-5.351 1.178-.131 2.553-.316 3.348.434 1.506 1.421-.107 4.098 1.66 5.69.629.567 1.335.595 2.017.999 1.966 1.164 1.895 1.988 1.43 4.28-.157.777-.131 3.285-.356 4.381-.388.682-.739 1.385-.98 2.143-.438 1.369 1.319 2.879 2.565 1.972 2.086-1.519 3.043-4.068 5.737-4.829 5.083-1.436 2.584 5.021.05 6.698-2.8 1.852-5.133 3.786-6.171 6.82-1.447-.235-3.001-.279-4.562-.226.1-.12.203-.239.294-.361.688-.924.92-2.061 1.744-2.883.853-.851-.274-2.427-1.322-1.713-.943.643-1.691 1.454-2.528 2.188-.147-2.237-.32-4.478-.581-6.691-.178-1.513-.007-3.044-.288-4.543-.274-1.461-.821-2.791-1.029-4.294-.078-.557-1.051-.559-1.127 0-.401 2.975-.771 6.006-.641 9.017.102 2.358-.044 4.735.025 7.094a22.631 22.631 0 00-.314-.183c-1.021-.574-2.006-1.468-3.184-1.675-.573-.101-1.19.358-.993.993.373 1.202.816 2.12 1.713 3.044.235.243.502.461.764.682-.115.012-.238.027-.35.038-1.898.186-3.551.274-5.034.496.863-2.456.242-5.332-2.311-7.147-1.192-.846-2.717-1.027-3.938-1.797zm-.261 19.389c.966-1.552 1.789-3.608 3.029-4.931 2.054-2.192 4.614-2.133 7.346-2.298 4.364-.264 9.657-.87 13.845.623 3.821 1.362 5.115 5.166 6.633 8.717-.398-.081-.795-.16-1.193-.245-5.836-2.873-12.06-5.184-18.657-3.865-4.273.854-8.287 2.874-12.432 4.263l-.386.074c.647-.716 1.267-1.459 1.815-2.338zM5.54 151.724c.721-1.672 4.5-1.211 5.744-.588 1.092.546 2.208 1.863 2.845 2.888 1.04 1.673 1.488 3.624 2.574 5.306.475.737 1.89.753 2.064-.266.377-2.215-1.061-4.428-.434-6.585.417-1.431 4.26-4.094 4.062-1.281-.008.345.02.686.083 1.024.379 3.775-.239 7.796-.793 11.52-.182 1.216 1.403 2.682 2.405 1.4.972-1.243 1.626-2.707 2.056-4.247 2.04-1.414 5.298-3.317 5.271-.084-.013 1.672-1.441 3.422-1.157 5.143.233 1.413 1.242 1.172 1.849 1.964.935 1.22-1.351 3.837-1.902 5.531-1.017.433-2.037.855-3.053 1.294-.54.234-1.067.483-1.601.725.458-2.277.38-4.846-1.005-6.491-.152-.181-.44-.105-.551.071-.462.729-.411 1.649-.524 2.492-.164 1.222-.181 2.457-.423 3.669-.079.393-.301 1.006-.437 1.612l-2.247 1.064c.558-2.014.424-4.447.123-6.06-.381-2.041-1.333-4.032-2.181-5.922-.107-.238-.528-.065-.427.179.658 1.588.069 4.159-.028 5.733-.095 1.558-.129 3.2-.47 4.724-.247 1.105-.65 1.992-.635 3.007-.88.392-1.762.782-2.658 1.144 2.739-5.361.871-13.855-1.602-18.518-.816-1.534-7.347-9.524-6.948-10.448zm15.21 39.796c-3.682.183-6.15 3.152-9.435-1.09-.397-.513-1.329-2.775-1.514-3.489 1.538-1.328 4.923-1.842 6.695-2.509 9.041-3.4 17.848-7.619 26.799-11.289 9.294-3.812 19.089-6.393 28.301-10.41 18.948-8.263 38.995-14.144 58.307-21.481 19.202-7.295 38.943-13.077 58.366-19.797 11.022-3.813 22.358-6.522 33.345-10.275 5.165-1.764 10.32-2.871 15.616-4.111 3.792-.889 8.44-1.436 11.981-3.422.366-.084.731-.171 1.1-.25 7.09-1.528 13.72 2.219 20.567 2.861 1.336.273 2.651.525 3.873.812 5.295 1.241 10.451 2.348 15.616 4.111 10.987 3.752 22.323 6.461 33.345 10.275 19.422 6.719 39.164 12.501 58.366 19.797 19.312 7.336 39.359 13.218 58.307 21.481 9.211 4.017 19.007 6.597 28.301 10.41 8.951 3.672 17.758 7.889 26.799 11.289 1.772.666 5.157 1.181 6.695 2.509-.185.715-1.118 2.977-1.514 3.489-3.284 4.242-5.753 1.273-9.435 1.09-14.827-7.457-30.339-13.434-45.704-19.89-15.304-6.431-30.586-12.968-46.291-18.463-15.849-5.547-31.935-10.464-47.569-16.632-15.11-5.96-31.204-10.179-46.943-14.153-6.99-1.765-13.932-3.799-20.896-5.749-4.766-1.335-9.62-2.358-14.388-3.731-.637-.184-3.151-.573-4.856-.815-5.429-3.529-13.414-2.818-19.304.316-1.209.189-2.342.384-2.74.5-4.768 1.374-9.622 2.396-14.388 3.731-6.963 1.95-13.905 3.984-20.896 5.749-15.74 3.974-31.833 8.193-46.943 14.153-15.634 6.168-31.72 11.084-47.569 16.632-15.704 5.495-30.986 12.032-46.291 18.463-15.364 6.454-30.876 12.431-45.703 19.888zm4.845 4.248c-.153-.078-.437-1.003-.706-1.745a47.023 47.023 0 001.975-.763c4.184-1.724 8.201-3.619 12.456-5.231 2.112-.8 4.222-1.64 6.33-2.497.01.178.013.357.049.535.094.475.336.896.424 1.368l.019.104c-5.071 1.944-10.071 4.052-14.92 6.507-.099.029-.193.053-.294.083-.822.246-4.697 1.962-5.333 1.639zm4.628 8.625c-.068-1.265-.934-3.716.079-4.822 1.496-1.634 5.991-.664 7.905-.648 4.036.033 8.085-.484 12.121-.613 10.132-.322 20.254.41 30.393-.179 8.845-.514 17.751-.694 26.622-.906 18.755-.448 37.506-.428 56.254-1.071 9.368-.321 18.691-.92 28.041-1.562 3.224-.222 6.45-.342 9.672-.494 3.368.71 7.012.915 10.253.807 5.638-.188 11.396.43 17.014-.085 9.312-.852 19.08-1.27 28.447-1.204 10.337.072 20.674.476 30.985.483 6.138.003 12.186.254 18.211-.246 4.696.308 9.411.417 14.12.74 9.351.643 18.673 1.241 28.041 1.562 18.749.644 37.499.623 56.254 1.071 8.871.212 17.777.391 26.622.906 10.138.589 20.261-.143 30.393.179 4.036.129 8.085.646 12.121.613 1.914-.017 6.41-.986 7.905.648 1.013 1.107.146 3.556.079 4.822-.132 2.478-.419 3.381-2.895 3.58-4.517.362-9.157.073-13.667.095-9.601.045-19.028-.822-28.586-1.606-9.294-.763-18.61-.697-27.919-1.126-18.696-.862-37.481-1.445-56.182-1.831-15.402-.319-31.065-1.164-46.554-.658-8.124-2.245-16.991-.782-25.276-.863-9.158-.09-18.245-.384-27.406-.383-9.426.001-18.76.434-28.16.471-6.694.027-13.454-.138-20.075.747-15.167-.44-30.492.374-45.567.686-18.702.387-37.486.971-56.182 1.831-9.307.429-18.624.362-27.918 1.126-9.558.784-18.985 1.653-28.586 1.606-4.51-.021-9.15.267-13.667-.095-2.473-.2-2.761-1.103-2.892-3.581zm431.724 18.394c-.124-3.092-.104-6.174-.493-9.228.574 0 1.146.007 1.719-.001 1.702-.023 9.637-.825 10.969.718 1.204 1.396.081 7.701.187 9.62.162 2.912.278 6.03.826 8.961-2.485-.028-4.927.065-6.873-.164-2.112-.249-4.24-.435-6.379-.578.404-3.135.173-6.12.044-9.328zm-18.611 1.317c-.086-3.676.007-7.414-.578-11.053 2.297.072 4.594.14 6.892.218 3.105.106 6.209.227 9.315.275-.353 2.783-.362 5.588-.466 8.412-.122 3.299-.568 6.631-.615 9.918a.186.186 0 01-.01.025c-4.847-.208-9.716-.247-14.524-.306.409-2.436.044-5.057-.014-7.489zm-23.71-11.711c6.795.179 13.588.364 20.382.572-.563 3.451-.495 6.979-.577 10.47-.061 2.574-.523 5.46-.445 8.088-6.185-.111-12.375-.309-18.566-.527-.099-6.116.642-12.559-.794-18.603zm-3.163 8.536c-.145 3.327-.577 6.575-.653 9.903-5.65-.209-11.298-.421-16.946-.62.366-3.621.275-7.211.164-10.856-.071-2.325.153-5.097-.329-7.517l.961.029c5.677.153 11.351.299 17.025.448-.473 2.821-.097 5.732-.222 8.613zm-38.083-9.76c5.832.225 11.664.422 17.487.587-.828 2.383-.685 5.113-.772 7.6-.122 3.489-.636 7.209-.541 10.713-2.099-.07-4.199-.148-6.296-.208a429.299 429.299 0 00-9.491-.145c.383-.347.634-.886.627-1.665-.037-5.182.474-11.684-1.014-16.882zm-19.638 8.689c-.08-3.207.316-6.527-.357-9.646 5.607.329 11.222.604 16.84.835-.463 2.271-.079 4.608-.093 6.95-.019 3.217-.382 6.425-.278 9.643-.223.882.218 1.608.895 2.063-5.758-.008-11.512.058-17.263.107.482-3.297.338-6.615.256-9.952zm-20.06 1.487c-.032-4.022-.041-8.295-.552-12.332 3.625.157 7.248.329 10.861.591 2.132.155 4.265.298 6.4.432-.557 3.198-.483 6.643-.518 9.823-.034 3.093-.305 6.119-.475 9.184a1.647 1.647 0 00-.267.801c-5.007.031-10.011.029-15.012-.058.194-2.851-.42-6.221-.437-8.441zm-4.329-1.609c-.13 3.277.093 6.634-.019 9.934-.429-.013-.857-.019-1.287-.033-5.305-.178-10.643-.201-15.979-.212-.373-7.102.198-14.367-.638-21.467 2.056.079 4.11.172 6.161.305 4.032.261 8.074.43 12.118.599-.681 3.556-.211 7.225-.356 10.874zm-21.381-2.694c.095 3.977-.594 7.886-.634 11.822a2.018 2.018 0 00-.144.546c-1.953-.007-3.906-.014-5.853-.038-2.925-.033-5.88-.15-8.841-.244.051-.186.088-.384.095-.602.155-4.364.167-8.682.02-13.068-.063-1.873.239-4.655-.055-7.063a48.785 48.785 0 006.038-.867c3.266.13 6.535.22 9.804.322-.734 2.99-.505 6.071-.43 9.192zm-20.123 11.975c-1.524-.02-3.047-.007-4.567.03-3.948-1.158-8.761-.676-12.574-.954-2.205-.161-4.422-.161-6.644-.106.458-6.245.391-13.327-.526-19.555 3.376.057 6.754.103 10.137.102 4.68-.002 9.854.25 14.969.085-.368 2.523-.196 5.216-.278 7.649-.137 4.1-.319 8.185-.538 12.261-.012.172 0 .333.021.488zm-28.495-.861c-3.339.147-6.675.294-9.975.13-3.412-.169-6.822-.225-10.227-.169-.001-.043.006-.082.002-.126-.541-6.533.945-13.339-.774-19.778a525.58 525.58 0 016.882-.039c5.024.012 10.031.112 15.037.204-.619 2.184-.661 4.273-.75 6.788-.154 4.291-.46 8.69-.195 12.99zm-24.429-8.47c-.193 2.683-.746 5.905-.08 8.577-2.262.104-4.521.244-6.776.46-3.054.294-6.618.37-9.681.312-1.642-.031-2.94-.194-4.212-.019h-.045c.021-.154.032-.315.023-.489a605.435 605.435 0 01-.538-12.261c-.084-2.507.103-5.292-.311-7.879.61.009 1.222.03 1.831.037 6.815.068 13.592-.079 20.38-.175-.929 3.752-.313 7.571-.591 11.437zm-41.35-11.834l2.125-.064c.972.151 2.024.141 3.009.181 3.562.147 7.14.256 10.717.341-.312 2.426 0 5.254-.063 7.15-.147 4.385-.135 8.704.02 13.068.008.217.044.414.096.602-2.961.094-5.915.21-8.841.244-1.948.022-3.9.031-5.853.038a1.972 1.972 0 00-.144-.546c-.04-3.936-.729-7.845-.634-11.822.075-3.123.304-6.204-.432-9.192zm-3.665 21.572c-5.336.011-10.674.033-15.979.212-.429.014-.858.021-1.287.033-.112-3.3.111-6.657-.019-9.934-.145-3.649.326-7.318-.356-10.875 4.043-.169 8.085-.338 12.118-.599 2.051-.133 4.105-.226 6.161-.305-.836 7.101-.264 14.367-.638 21.468zm-22.049.362c-5.002.086-10.005.089-15.012.058a1.647 1.647 0 00-.267-.801c-.171-3.066-.441-6.091-.475-9.184-.035-3.18.04-6.623-.518-9.822 2.135-.134 4.269-.277 6.4-.432 3.613-.261 7.236-.433 10.859-.59-.511 4.037-.521 8.31-.552 12.332-.017 2.218-.63 5.588-.435 8.439zm-19.625-9.928c-.083 3.337-.227 6.655.255 9.951-5.751-.05-11.505-.114-17.263-.107.677-.455 1.118-1.181.895-2.063.104-3.217-.259-6.426-.278-9.643-.013-2.343.371-4.68-.093-6.95 5.618-.23 11.233-.506 16.84-.835-.67 3.12-.276 6.441-.356 9.647zm-20.652 8.194c-.006.778.245 1.317.627 1.665-3.163.02-6.327.057-9.491.145-2.097.059-4.198.138-6.296.208.095-3.504-.419-7.225-.541-10.713-.088-2.487.057-5.217-.771-7.6 5.824-.165 11.656-.362 17.487-.587-1.489 5.197-.977 11.699-1.015 16.882zm-19.634-8.696c-.111 3.644-.201 7.236.164 10.856-5.647.199-11.296.412-16.946.62-.076-3.328-.509-6.576-.653-9.903-.125-2.882.251-5.792-.223-8.614 5.675-.148 11.349-.295 17.025-.448l.962-.029c-.482 2.421-.258 5.192-.329 7.518zm-21.391 11.638c-6.191.218-12.381.417-18.566.527.079-2.628-.384-5.514-.445-8.088-.082-3.491-.014-7.018-.577-10.469 6.794-.207 13.587-.392 20.382-.572-1.436 6.045-.695 12.488-.794 18.602zm-22.93.6c-4.807.059-9.677.098-14.524.306a.694.694 0 00-.009-.025c-.047-3.287-.493-6.62-.615-9.918-.105-2.824-.113-5.628-.466-8.412 3.107-.048 6.21-.168 9.315-.275 2.298-.079 4.594-.146 6.892-.218-.585 3.639-.493 7.376-.578 11.053-.059 2.431-.425 5.052-.015 7.489zm-18.554.52c-2.138.142-4.268.328-6.379.578-1.947.23-4.388.136-6.873.164.547-2.93.665-6.049.826-8.961.106-1.919-1.016-8.224.187-9.62 1.332-1.543 9.267-.741 10.969-.718.574.008 1.147.001 1.719.001-.389 3.053-.369 6.135-.493 9.228-.128 3.209-.36 6.194.044 9.328zm-20.072 17.242c-.795-1.115-.984-2.538-1.134-3.9-.222-2-.371-4.188.752-5.856 2.324-3.454 5.723-2.197 8.966-1.742 5.061.71 10.542.29 15.644.285 10.361-.013 20.719-.301 31.079-.269 15.652.049 31.369-.821 47.012-1.374 15.846-.561 31.676.181 47.488-.284 8.612-.253 17.217-1.002 25.827-1.16 5.455-.1 11.035.008 16.564-.208 3.105.422 6.421.229 9.263.286 7.288.144 14.603-.685 21.913-.235 6.971.43 13.956-.345 20.939-.147 4.395.124 10.229 1.311 14.788.062 5.75.254 11.56.137 17.235.242 8.611.158 17.215.906 25.827 1.16 15.813.464 31.643-.277 47.488.284 15.643.553 31.361 1.423 47.012 1.374 10.361-.032 20.719.256 31.079.269 5.103.007 10.584.427 15.644-.285 3.243-.455 6.642-1.713 8.965 1.742 1.123 1.67.973 3.857.752 5.856-.151 1.362-.339 2.785-1.134 3.9-1.832 2.566-6.56 1.124-9.177 1.163-3.267.049-6.538.575-9.806.411-2.427-.121-5.178-.215-7.936-.061-2.448-.191-5.444-.47-8.24-.167-2.194.013-4.388.085-6.576.134-6.263.138-12.343-.23-18.583-.317-1.314-.019-2.621-.003-3.93.003-.73-.021-1.469-.02-2.214.002-3.903.051-7.795.182-11.694.314-1.806-.059-3.716-.074-5.635.032-3.566-.277-8.297-.749-11.873.678-3.509.124-7.001.094-10.164-.433-3.8-.634-7.593-.391-11.384-.137-4.32-1.007-9.95-.091-14.096-.03-3.499-.151-7.008-.249-10.499-.166-2.867-.224-6.26-.431-9.18.281-8.709-.066-17.389-1.229-26.08-.497-4.292-.267-9.154.535-12.532.367-1.865-.093-3.922-.167-6.025-.127-4.752-1.178-9.729-.852-14.598-.658-6.842.273-13.72.06-20.568.069-5.912.008-11.823.103-17.735.162-3.709.037-7.824-.629-11.441.46-.826.025-1.64.058-2.411.096-3.378.168-8.242-.634-12.532-.367-8.69-.731-17.371.431-26.08.497-2.92-.712-6.313-.506-9.18-.281-3.491-.082-7.001.017-10.499.166-4.146-.06-9.776-.977-14.096.03-3.791-.254-7.583-.496-11.384.137-3.163.527-6.655.557-10.164.433-3.576-1.427-8.308-.955-11.873-.678-1.919-.106-3.829-.091-5.635-.032-3.899-.132-7.791-.261-11.694-.314a38.921 38.921 0 00-2.214-.002c-1.31-.006-2.617-.021-3.93-.003-6.241.086-12.321.455-18.583.317-2.188-.049-4.383-.121-6.576-.134-2.796-.302-5.793-.023-8.24.167-2.758-.154-5.508-.06-7.936.061-3.268.163-6.54-.363-9.806-.411-2.609-.04-7.336 1.401-9.17-1.165zm3.974 10.695c-5.56-3.357 2.656-4.323 4.172-4.397 2.451-.12 4.83.388 7.25.4 1.709.009 3.478-.064 5.252-.163 2.095-.004 4.197-.124 6.297-.205 2.834.607 6.037.657 8.951.682 2.474.933 4.808 2.751.895 4.818-1.417.749-5.814-.066-7.484-.064-4.519.006-9.043-.098-13.543-.401-1.815-.122-3.617-.212-5.431-.306-.907-.049-5.644.067-6.359-.364zm3.782 5.688a6.897 6.897 0 01-.608-.638c.348.012.687.028 1.011.055 3.345.28 6.757.439 10.111.569 4.382.171 8.71.358 13.11.368.432.001.885.023 1.345.05-.201.299-.417.602-.669.902-2.204 2.618-4.617 2.88-7.67 2.69-3.103-.194-6.401-.039-9.47-.591-2.802-.504-5.047-1.515-7.16-3.405zm-3.987 124.723c1.055-13.41 1.329-27.057 2.967-40.399 1.582-12.889 2.263-25.878 3.289-38.803.553-6.97 1.066-13.965 1.367-20.942.234-5.429 1.216-10.641 1.322-16.014 2.043.304 4.192.351 6.089.478 3.303.22 6.407.462 9.191.12-.386 4.301.182 8.861.577 13.011.577 6.04 1.319 12.016 1.906 18.055 1.231 12.697 1.052 25.359 1.747 38.072.318 5.818.553 11.821.471 17.632-.082 5.786.823 11.578.7 17.355-.073 3.457-.061 6.918-.091 10.375-.031 3.447 1.618 7.91-2.299 9.277-.114.04-.26.063-.396.093-3.448-.073-6.895-.171-10.334-.198-3.251-.025-7.026.112-10.679.546-1.568.071-3.489.217-4.532-.233-2.653-1.145-1.488-5.967-1.295-8.425zm-6.489 15.641l1.877-.049c2.22-.337 4.323-.887 6.574-1.051 1.811-.132 3.581-.207 5.341-.478 5.486.258 10.739.401 16.06-.215 5.946.332 11.882.606 17.855.598 15.199-.019 30.369.309 45.543.677 15.848.383 31.717-1.147 47.558-.475 8.189.347 16.392.092 24.581.434 5.328.223 10.405-.544 15.722-.549l19.21-.022c1.633-.002 3.3-.104 4.896-.462 4.617.131 9.271.298 13.895.323l19.765.107c4.697.026 9.642.449 14.348-.241 1.277.202 2.585.271 3.871.273l19.21.022c5.317.007 10.394.772 15.722.549 8.188-.342 16.391-.088 24.581-.434 15.842-.671 31.71.86 47.558.475 15.174-.368 30.344-.696 45.543-.677 5.973.008 11.909-.266 17.855-.598 5.321.617 10.574.474 16.06.215 1.76.27 3.53.346 5.341.478 2.251.164 4.354.715 6.574 1.051l1.877.049c4.167-.989 3.7 7.133 1.721 8.805-1.702 1.438-6.324.891-8.538.988-3.893.172-7.7.342-11.615.294-19.495-.24-38.848-1.346-58.359-1.32-19.955.028-39.955.75-59.877.846-10.046.049-20.09.53-30.125.86-6.427.212-13.411.191-20.017 1.044-14.622-1.066-29.362-.505-43.971-.346-9.644.105-19.257.916-28.925.781-4.248-.06-8.688-.617-13.06-.675-5.954-.603-12.124-.616-17.852-.804-10.034-.33-20.078-.81-30.124-.86-19.922-.098-39.922-.819-59.877-.846-19.511-.027-38.865 1.078-58.359 1.32-3.915.049-7.722-.122-11.615-.294-2.215-.098-6.837.45-8.538-.988-1.985-1.672-2.453-9.794 1.714-8.805zM16.46 424.932c.907-1.661 1.419-1.493 3.153-1.902 1.616-.381 3.467-.319 5.117-.52 2.468-.3 4.683-.649 6.943-1.08 7.334.657 14.763.548 22.124.634 17.836.207 35.615-1.002 53.49-.998 18.368.003 36.776.489 55.114.634 10.253.081 20.491.558 30.74.482 3.356-.024 6.767.185 10.185.348 1.867.273 3.791.299 5.692.342 5.064.116 10.041.579 15.09.864 9.981.564 19.828-.11 29.803-.144 9.349-.032 18.579-.26 27.945-.263 5.042-.001 10.164.463 15.178.127 2.164-.145 4.273-.42 6.368-.754 5.159-.061 10.359-.56 15.432-.522 10.248.076 20.487-.401 30.741-.482 18.339-.144 36.746-.63 55.114-.634 17.875-.003 35.653 1.205 53.49.998 7.362-.085 14.79.023 22.124-.634 2.26.43 4.475.78 6.943 1.08 1.651.201 3.501.138 5.117.52 1.734.409 2.247.241 3.153 1.902.227.417.741 3.468.509 4.124-1.017 2.873-8.673 1.89-11.244 1.961-4.426.122-8.684.551-13.136.34-17.043-.804-34.096.071-51.148.079-17.259.008-34.504.225-51.756.392-16.756.162-33.481.753-50.238.76-7.133.003-14.355-.15-21.579-.121-5.948-.731-11.868-.517-18.032-.306-8.655.296-17.338.695-25.994.764-7.26.059-14.359.349-21.616.055-12.562-.862-25.325-.387-37.81-.392-16.758-.008-33.482-.598-50.238-.76-17.252-.167-34.497-.384-51.756-.392-17.051-.008-34.105-.882-51.148-.079-4.453.211-8.71-.218-13.136-.34-2.571-.071-10.227.913-11.244-1.961-.231-.655.283-3.707.51-4.122zm489.918 18.207c.089 1.837-.084 4.982-1.747 6.052-1.703 1.096-5.664 1.015-7.622 1.061-4.581.11-9.137.296-13.724.281-17.589-.059-35.367-.28-52.864-1.847-16.974-1.519-34.134-.763-51.174-.941-18.002-.187-36.088-.505-54.08.333-8.011.373-16.062.637-24.08.829-14.426-2.038-29.207 2.169-43.647 1.67-7.319-.254-14.568-.1-21.895-.422-3.481-.153-6.634-1.311-10.122-1.202-4.367.135-8.762.094-13.136-.006-8.478-.193-16.999-.473-25.475-.867-17.992-.838-36.077-.521-54.08-.333-17.041.177-34.202-.578-51.174.941-17.497 1.565-35.274 1.788-52.864 1.847-4.588.016-9.142-.172-13.723-.281-1.959-.047-5.919.034-7.622-1.061-1.663-1.07-1.836-4.215-1.747-6.052.064-1.335-.468-4.042.743-5.171 1.111-1.036 4.273-.959 5.745-1.088 3.145-.275 6.295-.274 9.42-.538 3.31.193 6.621.321 9.921.606 9.471.814 19.405-.258 28.939-.309 39.225-.211 78.884-.472 118.061 1.398 11.007.525 22.149.019 33.169.024 2.639.001 5.271.042 7.898.079 3.863.194 7.714.447 11.562.787 7.342.647 14.51.233 21.84.258 8.654.03 17.337-.472 25.994-.69 3.05-.076 6.081-.226 9.129-.307 4.107-.025 8.223-.123 12.356-.125 11.02-.006 22.162.502 33.169-.024 39.177-1.87 78.837-1.609 118.061-1.398 9.534.051 19.468 1.123 28.939.309 3.302-.284 6.611-.413 9.921-.606 3.125.264 6.275.264 9.42.538 1.472.129 4.634.052 5.746 1.088 1.21 1.124.679 3.832.743 5.167z"/></svg>