<svg height="392pt" viewBox="-5 0 392 392.533" width="392pt" xmlns="http://www.w3.org/2000/svg"><path d="M321.121 197.973c0 88.601-71.828 160.425-160.43 160.425C72.094 358.398.266 286.574.266 197.973c0-88.602 71.828-160.426 160.425-160.426 88.602 0 160.43 71.824 160.43 160.426zm0 0" fill="#edebdc"/><path d="M359.164 385.707H112.41c-9.152 0-16.57-7.418-16.57-16.57V204.3c0-9.149 7.418-16.57 16.57-16.57h246.758c9.148 0 16.566 7.417 16.566 16.57v164.836c0 9.152-7.418 16.57-16.57 16.57zm0 0" fill="#fff"/><g fill="#4c241d"><path d="M359.168 392.535H112.406c-12.898 0-23.394-10.496-23.394-23.394V204.3c0-12.903 10.496-23.395 23.394-23.395h246.762c12.898 0 23.39 10.492 23.39 23.395v164.84c0 12.898-10.492 23.394-23.39 23.394zM112.406 194.56c-5.367 0-9.738 4.367-9.738 9.742v164.84c0 5.37 4.371 9.738 9.738 9.738h246.762c5.367 0 9.738-4.367 9.738-9.738V204.3c0-5.375-4.37-9.742-9.738-9.742zm0 0"/><path d="M191.414 242.348h-54.613a6.828 6.828 0 01-6.828-6.828 6.828 6.828 0 016.828-6.829h54.613a6.824 6.824 0 016.824 6.829 6.824 6.824 0 01-6.824 6.828zm136.531 47.785H136.801a6.824 6.824 0 01-6.828-6.824 6.828 6.828 0 016.828-6.829h191.144a6.828 6.828 0 016.828 6.829 6.824 6.824 0 01-6.828 6.824zm0 40.961H136.801a6.827 6.827 0 110-13.653h191.144a6.827 6.827 0 110 13.652zm-.004-184.321a6.834 6.834 0 01-6.546-4.898l-27.583-93.79-27.582 93.79c-1.066 3.617-4.859 5.707-8.476 4.617a6.822 6.822 0 01-4.625-8.472l34.133-116.055a6.83 6.83 0 0113.101 0l34.133 116.055c1.063 3.62-1.008 7.414-4.621 8.472a6.658 6.658 0 01-1.934.281zm0 0"/><path d="M280.16 98.988a6.83 6.83 0 01-6.828-6.816 6.827 6.827 0 016.813-6.84l33.753-.066h.016a6.823 6.823 0 016.824 6.812 6.828 6.828 0 01-6.812 6.844l-33.754.066h-.012zm-71.68-15.363c-28.785 0-39.136-22.824-41.335-39.25H86.027a6.828 6.828 0 110-13.656h87.465a6.828 6.828 0 016.828 6.828c.02 3.3.985 32.426 28.16 32.426a6.828 6.828 0 016.829 6.828 6.824 6.824 0 01-6.829 6.824zm0 0"/><path d="M86.027 153.602a6.829 6.829 0 01-4.949-11.536c14.363-15.093 14.762-30.132 14.762-30.28V6.827a6.827 6.827 0 1113.652.001v104.957c0 .828-.207 20.442-18.52 39.695a6.822 6.822 0 01-4.945 2.122zm0 0"/><path d="M112.266 83.625c-3.524 0-7-.55-10.332-1.645a6.83 6.83 0 01-4.364-8.613c1.18-3.574 5.035-5.539 8.618-4.363 1.953.64 4.003.969 6.078.969 10.703 0 19.414-8.707 19.414-19.414 0-1.86-.262-3.7-.782-5.473a6.83 6.83 0 014.637-8.473c3.633-1.047 7.414 1.028 8.469 4.633a33.167 33.167 0 011.328 9.313c0 18.234-14.832 33.066-33.066 33.066zM64.691 124.16a6.824 6.824 0 01-6.824-6.828 6.82 6.82 0 016.824-6.824c10.157 0 10.668-8.887 10.668-10.668V64.852c0-3.774 3.059-6.825 6.829-6.825s6.824 3.051 6.824 6.825V99.84c0 9.773-6.477 24.32-24.32 24.32zm126.297 8.961h-61.015a6.832 6.832 0 01-6.336-4.281 6.847 6.847 0 011.617-7.48C138.262 108.905 147 71.52 149.27 58.167c.632-3.723 4.16-6.168 7.87-5.594a6.825 6.825 0 015.587 7.871c-.301 1.782-6.368 36.782-19.2 59.02h36.192L167.44 95.96a6.824 6.824 0 012.891-9.211c3.344-1.746 7.469-.45 9.207 2.89l17.496 33.493a6.834 6.834 0 01-.21 6.703 6.832 6.832 0 01-5.837 3.285zm0 0"/></g></svg>