<svg width="190" height="190" fill="none" xmlns="http://www.w3.org/2000/svg"><rect width="90" height="90" rx="16" fill="#5586A2"/><rect x="20" y="41" width="50" height="8" rx="2" fill="#fff"/><rect x="41" y="70" width="50" height="8" rx="2" transform="rotate(-90 41 70)" fill="#fff"/><rect x="100" y="100" width="90" height="90" rx="16" fill="#5586A2"/><rect x="130.151" y="124.494" width="50" height="8" rx="2" transform="rotate(45 130.151 124.494)" fill="#fff"/><rect x="124.494" y="159.849" width="50" height="8" rx="2" transform="rotate(-45 124.494 159.849)" fill="#fff"/><rect x="100" width="90" height="90" rx="16" fill="#5586A2"/><rect x="120" y="40" width="50" height="10" rx="2" fill="#fff"/><rect y="100" width="90" height="90" rx="16" fill="#5586A2"/><rect x="20" y="140" width="50" height="10" rx="2" fill="#fff"/><rect x="40" y="123" width="10" height="10" rx="2" fill="#fff"/><rect x="40" y="123" width="10" height="10" rx="2" fill="#fff"/><rect x="40" y="158" width="10" height="10" rx="2" fill="#fff"/><rect x="40" y="158" width="10" height="10" rx="2" fill="#fff"/></svg>