<svg width="131" height="168" fill="none" xmlns="http://www.w3.org/2000/svg"><rect x="5.822" width="125.178" height="167.389" rx="2" fill="#5FAE6C"/><path d="M5.822 2a2 2 0 012-2H23.29v167.389H7.822a2 2 0 01-2-2V2z" fill="#519F5E"/><rect x=".761" y="13.1" width="17.467" height="7.278" rx="2" transform="rotate(6 .76 13.1)" fill="#E3E3E3"/><rect x=".761" y="29.111" width="17.467" height="7.278" rx="2" transform="rotate(6 .76 29.111)" fill="#E3E3E3"/><rect x=".761" y="45.122" width="17.467" height="7.278" rx="2" transform="rotate(6 .76 45.122)" fill="#E3E3E3"/><rect x=".761" y="61.133" width="17.467" height="7.278" rx="2" transform="rotate(6 .76 61.133)" fill="#E3E3E3"/><rect x=".761" y="77.144" width="17.467" height="7.278" rx="2" transform="rotate(6 .76 77.144)" fill="#E3E3E3"/><rect x=".761" y="93.156" width="17.467" height="7.278" rx="2" transform="rotate(6 .76 93.156)" fill="#E3E3E3"/><rect x=".761" y="109.167" width="17.467" height="7.278" rx="2" transform="rotate(6 .76 109.167)" fill="#E3E3E3"/><rect x=".761" y="125.178" width="17.467" height="7.278" rx="2" transform="rotate(6 .76 125.178)" fill="#E3E3E3"/><rect x=".761" y="141.189" width="17.467" height="7.278" rx="2" transform="rotate(6 .76 141.189)" fill="#E3E3E3"/><rect x="48.033" y="34.933" width="59.678" height="5.822" rx="1" fill="#E3E3E3"/><rect x="48.033" y="49.489" width="59.678" height="5.822" rx="1" fill="#E3E3E3"/><rect x="48.033" y="64.044" width="59.678" height="5.822" rx="1" fill="#E3E3E3"/></svg>