<svg xmlns="http://www.w3.org/2000/svg" viewBox="0 0 64 64" width="512" height="512"><path d="M1.652 19.564h17V62h-17zm43.21 0H62V62H44.862z" fill="#5aaae0"/><path d="M18.652 2h26.21v60h-26.21z" fill="#7dc7ff"/><path d="M33.912 48.566a3.923 3.923 0 001.894-3.343 4 4 0 00-8 0 3.923 3.923 0 001.893 3.343 5.922 5.922 0 00-3.893 5.539V62h12v-7.895a5.922 5.922 0 00-3.894-5.539z" fill="#f73445"/><path d="M22.684 23.512H24.7v1.973h-2.016zm0 3.948H24.7v1.973h-2.016zm0 3.947H24.7v1.973h-2.016zm0 3.947H24.7v1.974h-2.016zm4.033-11.842h2.016v1.973h-2.016zm0 3.948h2.016v1.973h-2.016zm0 3.947h2.016v1.973h-2.016zm0 3.947h2.016v1.974h-2.016zm4.032-11.842h2.016v1.973H30.75zm0 3.948h2.016v1.973H30.75zm0 3.947h2.016v1.973H30.75zm0 3.947h2.016v1.974H30.75zm4.032-11.842h2.017v1.973H34.78zm-8.064-3.948h2.016v1.974h-2.016zm4.032 0h2.016v1.974H30.75zm4.032 0h2.017v1.974H34.78zm0 7.896h2.017v1.973H34.78zm0 3.947h2.017v1.973H34.78zm0 3.947h2.017v1.974H34.78zm4.033-11.842h2.016v1.973h-2.016zm0 3.948h2.016v1.973h-2.016zm0 3.947h2.016v1.973h-2.016zm0 3.947h2.016v1.974h-2.016z" fill="#359ed8"/><path d="M13.47 52.485a2.93 2.93 0 001.166-2.328 3 3 0 00-6 0A2.93 2.93 0 009.8 52.485a4.93 4.93 0 00-3.165 4.58V62h10v-4.934a4.93 4.93 0 00-3.166-4.581z" fill="#f7f769"/><path d="M22.543 49.524a2.93 2.93 0 001.165-2.327 3 3 0 00-6 0 2.93 2.93 0 001.166 2.327 4.93 4.93 0 00-3.166 4.581V62h10v-7.895a4.93 4.93 0 00-3.165-4.581z" fill="#ffc943"/><path d="M53.794 52.485a2.93 2.93 0 001.166-2.328 3 3 0 00-6 0 2.93 2.93 0 001.165 2.328 4.93 4.93 0 00-3.166 4.58V62h10v-4.934a4.93 4.93 0 00-3.165-4.581z" fill="#f7f769"/><path d="M44.72 49.524a2.93 2.93 0 001.167-2.327 3 3 0 00-6 0 2.93 2.93 0 001.165 2.327 4.93 4.93 0 00-3.165 4.581V62h10v-7.895a4.93 4.93 0 00-3.166-4.581z" fill="#ffc943"/><path d="M49.903 26.472h2.016v15.79h-2.016zm6.048 0h2.017v15.79H55.95zm-50.405 0h2.017v15.79H5.546zm6.049 0h2.016v15.79h-2.016z" fill="#005889"/><path d="M23.692 4.76h16.13v9.87h-16.13z" fill="#359ed8"/></svg>