<svg height="392pt" viewBox="-5 0 392 392.53333" width="392pt" xmlns="http://www.w3.org/2000/svg"><path d="m321.121094 197.972656c0 88.601563-71.828125 160.425782-160.429688 160.425782-88.597656 0-160.425781-71.824219-160.425781-160.425782 0-88.601562 71.828125-160.425781 160.425781-160.425781 88.601563 0 160.429688 71.824219 160.429688 160.425781zm0 0" fill="#edebdc"/><path d="m359.164062 385.707031h-246.753906c-9.152344 0-16.570312-7.417969-16.570312-16.570312v-164.835938c0-9.148437 7.417968-16.570312 16.570312-16.570312h246.757813c9.148437 0 16.566406 7.417969 16.566406 16.570312v164.835938c0 9.152343-7.417969 16.570312-16.570313 16.570312zm0 0" fill="#fff"/><g fill="#4c241d"><path d="m359.167969 392.535156h-246.761719c-12.898438 0-23.394531-10.496094-23.394531-23.394531v-164.839844c0-12.902343 10.496093-23.394531 23.394531-23.394531h246.761719c12.898437 0 23.390625 10.492188 23.390625 23.394531v164.839844c0 12.898437-10.492188 23.394531-23.390625 23.394531zm-246.761719-197.976562c-5.367188 0-9.738281 4.367187-9.738281 9.742187v164.839844c0 5.371094 4.371093 9.738281 9.738281 9.738281h246.761719c5.367187 0 9.738281-4.367187 9.738281-9.738281v-164.839844c0-5.375-4.371094-9.742187-9.738281-9.742187zm0 0"/><path d="m191.414062 242.347656h-54.613281c-3.769531 0-6.828125-3.054687-6.828125-6.828125 0-3.773437 3.058594-6.828125 6.828125-6.828125h54.613281c3.769532 0 6.824219 3.054688 6.824219 6.828125 0 3.773438-3.054687 6.828125-6.824219 6.828125zm0 0"/><path d="m327.945312 290.132812h-191.144531c-3.769531 0-6.828125-3.050781-6.828125-6.824218 0-3.773438 3.058594-6.828125 6.828125-6.828125h191.144531c3.769532 0 6.828126 3.054687 6.828126 6.828125 0 3.773437-3.058594 6.824218-6.828126 6.824218zm0 0"/><path d="m327.945312 331.09375h-191.144531c-3.769531 0-6.828125-3.054688-6.828125-6.828125s3.058594-6.824219 6.828125-6.824219h191.144531c3.769532 0 6.828126 3.050782 6.828126 6.824219s-3.058594 6.828125-6.828126 6.828125zm0 0"/><path d="m327.941406 146.773438c-2.949218 0-5.667968-1.925782-6.546875-4.898438l-27.582031-93.789062-27.582031 93.789062c-1.066407 3.617188-4.859375 5.707031-8.476563 4.617188-3.617187-1.058594-5.6875-4.851563-4.625-8.472657l34.132813-116.054687c.859375-2.90625 3.523437-4.898438 6.550781-4.898438 3.03125 0 5.695312 1.992188 6.550781 4.898438l34.132813 116.054687c1.0625 3.621094-1.007813 7.414063-4.621094 8.472657-.644531.195312-1.296875.28125-1.933594.28125zm0 0"/><path d="m280.160156 98.988281c-3.761718 0-6.820312-3.046875-6.828125-6.816406-.003906-3.773437 3.042969-6.832031 6.8125-6.839844l33.753907-.066406h.015624c3.761719 0 6.820313 3.046875 6.824219 6.8125.007813 3.773437-3.042969 6.835937-6.8125 6.84375l-33.753906.066406s-.007813 0-.011719 0zm0 0"/><path d="m208.480469 83.625c-28.785157 0-39.136719-22.824219-41.335938-39.25h-81.117187c-3.769532 0-6.828125-3.054688-6.828125-6.828125s3.058593-6.828125 6.828125-6.828125h87.464844c3.769531 0 6.828124 3.054688 6.828124 6.828125.019532 3.300781.984376 32.425781 28.160157 32.425781 3.769531 0 6.828125 3.054688 6.828125 6.828125 0 3.773438-3.058594 6.824219-6.828125 6.824219zm0 0"/><path d="m86.027344 153.601562c-1.691406 0-3.382813-.628906-4.707032-1.882812-2.730468-2.597656-2.835937-6.921875-.242187-9.652344 14.363281-15.09375 14.761719-30.132812 14.761719-30.28125v-104.957031c0-3.773437 3.058594-6.828125 6.828125-6.828125s6.824219 3.054688 6.824219 6.828125v104.957031c0 .828125-.207032 20.441406-18.519532 39.695313-1.34375 1.40625-3.140625 2.121093-4.945312 2.121093zm0 0"/><path d="m112.265625 83.625c-3.523437 0-7-.550781-10.332031-1.644531-3.585938-1.175781-5.535156-5.035157-4.363282-8.613281 1.179688-3.574219 5.035157-5.539063 8.617188-4.363282 1.953125.640625 4.003906.96875 6.078125.96875 10.703125 0 19.414063-8.707031 19.414063-19.414062 0-1.859375-.261719-3.699219-.78125-5.472656-1.058594-3.617188 1.015624-7.414063 4.636718-8.472657 3.632813-1.046875 7.414063 1.027344 8.46875 4.632813.882813 3.019531 1.328125 6.152344 1.328125 9.3125 0 18.234375-14.832031 33.066406-33.066406 33.066406zm0 0"/><path d="m64.691406 124.160156c-3.769531 0-6.824218-3.054687-6.824218-6.828125 0-3.773437 3.054687-6.824219 6.824218-6.824219 10.15625 0 10.667969-8.886718 10.667969-10.667968v-34.988282c0-3.773437 3.058594-6.824218 6.828125-6.824218s6.824219 3.050781 6.824219 6.824218v34.988282c0 9.773437-6.476563 24.320312-24.320313 24.320312zm0 0"/><path d="m190.988281 133.121094h-61.015625c-2.785156 0-5.296875-1.695313-6.335937-4.28125-1.035157-2.59375-.394531-5.546875 1.617187-7.480469 13.007813-12.453125 21.746094-49.839844 24.015625-63.191406.632813-3.722657 4.160157-6.167969 7.871094-5.59375 3.71875.632812 6.21875 4.160156 5.585937 7.871093-.300781 1.78125-6.367187 36.78125-19.199218 59.019532h36.191406l-12.277344-23.503906c-1.746094-3.339844-.453125-7.46875 2.890625-9.210938 3.34375-1.746094 7.46875-.449219 9.207031 2.890625l17.496094 33.492187c1.105469 2.113282 1.027344 4.65625-.210937 6.703126-1.238281 2.039062-3.453125 3.285156-5.835938 3.285156zm0 0"/></g></svg>