<svg width="131" height="168" viewBox="0 0 131 168" fill="none" xmlns="http://www.w3.org/2000/svg">
<rect x="5.82224" width="125.178" height="167.389" rx="2" fill="#5FAE6C"/>
<path d="M5.82224 2C5.82224 0.895431 6.71767 0 7.82224 0H23.2889V167.389H7.82223C6.71766 167.389 5.82224 166.493 5.82224 165.389V2Z" fill="#519F5E"/>
<rect x="0.760742" y="13.1001" width="17.4667" height="7.27778" rx="2" transform="rotate(6 0.760742 13.1001)" fill="#E3E3E3"/>
<rect x="0.760742" y="29.1111" width="17.4667" height="7.27778" rx="2" transform="rotate(6 0.760742 29.1111)" fill="#E3E3E3"/>
<rect x="0.760742" y="45.1223" width="17.4667" height="7.27778" rx="2" transform="rotate(6 0.760742 45.1223)" fill="#E3E3E3"/>
<rect x="0.760742" y="61.1333" width="17.4667" height="7.27778" rx="2" transform="rotate(6 0.760742 61.1333)" fill="#E3E3E3"/>
<rect x="0.760742" y="77.1445" width="17.4667" height="7.27778" rx="2" transform="rotate(6 0.760742 77.1445)" fill="#E3E3E3"/>
<rect x="0.760742" y="93.1555" width="17.4667" height="7.27778" rx="2" transform="rotate(6 0.760742 93.1555)" fill="#E3E3E3"/>
<rect x="0.760742" y="109.167" width="17.4667" height="7.27778" rx="2" transform="rotate(6 0.760742 109.167)" fill="#E3E3E3"/>
<rect x="0.760742" y="125.178" width="17.4667" height="7.27778" rx="2" transform="rotate(6 0.760742 125.178)" fill="#E3E3E3"/>
<rect x="0.760742" y="141.189" width="17.4667" height="7.27778" rx="2" transform="rotate(6 0.760742 141.189)" fill="#E3E3E3"/>
<rect x="48.0333" y="34.9333" width="59.6778" height="5.82222" rx="1" fill="#E3E3E3"/>
<rect x="48.0333" y="49.489" width="59.6778" height="5.82222" rx="1" fill="#E3E3E3"/>
<rect x="48.0333" y="64.0444" width="59.6778" height="5.82222" rx="1" fill="#E3E3E3"/>
</svg>
