<svg height="512" viewBox="0 0 128 128" width="512" xmlns="http://www.w3.org/2000/svg"><path d="M116.758 105.021a7.402 7.402 0 00-4.293-.274l-5.257-7.31a7.411 7.411 0 00.986-3.189 7.39 7.39 0 00-1.795-5.403 7.557 7.557 0 00-.662-.665l3.19-7.102c.084.003.169.009.253.009a7.386 7.386 0 004.857-1.814c1.503-1.301 2.409-3.108 2.552-5.09s-.495-3.901-1.795-5.403a7.388 7.388 0 00-5.09-2.552 7.384 7.384 0 00-5.403 1.795c-1.502 1.301-2.409 3.108-2.552 5.09s.495 3.901 1.795 5.403c.074.085.155.162.232.244l-3.385 7.535a7.407 7.407 0 00-3.46 1.058c.065-.893.11-1.791.11-2.701a36.653 36.653 0 00-24.629-34.687V24.213c2.33-.325 4.135-2.311 4.135-4.729v-4.079a4.8 4.8 0 00-4.795-4.795h-22.9a4.8 4.8 0 00-4.796 4.795v4.079c0 2.418 1.805 4.403 4.136 4.729v25.751a36.712 36.712 0 00-13.353 8.179 4.03 4.03 0 00-1.031-.149H15.316a4.07 4.07 0 00-4.065 4.064v3.293a4.066 4.066 0 003.339 3.992v40.919c0 5.498 4.473 9.971 9.971 9.971 5.323 0 9.672-4.195 9.944-9.451 6.639 6.554 15.751 10.609 25.795 10.609 15.613 0 28.975-9.794 34.285-23.558.173.258.356.51.562.749a7.388 7.388 0 005.636 2.572c.666 0 1.32-.089 1.95-.26l5.123 7.124a7.474 7.474 0 00-.676 1.361c-1.439 3.841.516 8.137 4.357 9.576a7.403 7.403 0 002.602.473c3.014 0 5.857-1.846 6.975-4.831 1.44-3.842-.515-8.138-4.356-9.576z" fill="#e6e7e8"/><path d="M24.561 44.491c-2.855 0-5.179 2.323-5.179 5.179s2.323 5.178 5.179 5.178 5.179-2.323 5.179-5.178-2.324-5.179-5.179-5.179z" fill="#e6e7e8"/><circle cx="24.561" cy="23.279" fill="#e6e7e8" r="5.179"/><circle cx="15.59" cy="37.854" fill="#e6e7e8" r="5.179"/><path d="M67.41 46.681V19.279H45.19v27.402C30.893 51.355 20.561 64.792 20.561 80.65c0 19.738 16.001 35.739 35.739 35.739s35.74-16 35.74-35.738c0-15.858-10.333-29.296-24.63-33.97z" fill="#fff"/><path d="M21.309 73.484a35.777 35.777 0 00-.748 7.167c0 19.738 16.001 35.739 35.739 35.739s35.74-16.001 35.74-35.739c0-2.458-.276-4.849-.749-7.167z" fill="#fa759e"/><path d="M56.3 113.39c-13.955 0-26.12-7.27-32.578-18.048C29.327 107.75 41.8 116.39 56.3 116.39s26.973-8.64 32.578-21.048C82.421 106.12 70.255 113.39 56.3 113.39zm11.45-94.111h-22.9a3.795 3.795 0 01-3.795-3.795v-4.078a3.795 3.795 0 013.795-3.795h22.9a3.795 3.795 0 013.795 3.795v4.078a3.794 3.794 0 01-3.795 3.795z" fill="#fff"/><path d="M11.59 64.416v41.845a8.971 8.971 0 0017.942 0V64.416z" fill="#fff"/><path d="M11.59 86.877v19.385a8.971 8.971 0 0017.942 0V86.877z" fill="#0089ef"/><path d="M29.806 64.416h-18.49a3.065 3.065 0 01-3.065-3.065v-3.293a3.065 3.065 0 013.065-3.065h18.491a3.065 3.065 0 013.065 3.065v3.293a3.066 3.066 0 01-3.066 3.065z" fill="#fff"/><path d="M108.059 101.896l-6.062-8.429a6.385 6.385 0 01-1.011 1.114 6.416 6.416 0 01-1.874 1.124l5.972 8.304a6.456 6.456 0 012.975-2.113zm-7.084-27.371l-3.935 8.76a6.417 6.417 0 013.466 1.188l3.797-8.453a6.397 6.397 0 01-3.328-1.495zM90.719 91.893a6.449 6.449 0 01-.208-3.657l-8.943 1.304a6.438 6.438 0 01.525 3.611z" fill="#ffd7e5"/><circle cx="96.773" cy="89.713" fill="#fff" r="6.439"/><circle cx="96.773" cy="89.713" fill="#6dc9f7" r="6.439"/><circle cx="110.148" cy="107.987" fill="#6dc9f7" r="6.439"/><circle cx="105.167" cy="69.646" fill="#6dc9f7" r="6.439"/><circle cx="75.724" cy="92.236" fill="#6dc9f7" r="6.439"/><circle cx="20.561" cy="45.669" fill="#0089ef" r="4.179"/><circle cx="20.561" cy="19.279" fill="#0089ef" r="4.179"/><circle cx="11.59" cy="33.854" fill="#0089ef" r="4.179"/><g fill="#3a2c60"><path d="M29.532 82.584a1 1 0 00-1 1v8.292a1 1 0 002 0v-8.292a1 1 0 00-1-1z"/><path d="M116.92 104.906a7.39 7.39 0 00-4.162-3.886 7.388 7.388 0 00-4.294-.274l-5.257-7.309a7.411 7.411 0 00.986-3.189 7.39 7.39 0 00-1.795-5.403 7.432 7.432 0 00-.663-.665l3.19-7.102c.084.003.169.009.253.009a7.381 7.381 0 004.857-1.815c3.102-2.685 3.441-7.392.757-10.493-2.684-3.102-7.392-3.442-10.494-.757a7.39 7.39 0 00-2.551 5.09 7.39 7.39 0 001.795 5.403c.074.086.155.162.233.244l-3.384 7.535a7.404 7.404 0 00-3.465 1.061c.067-.894.114-1.793.114-2.703a36.653 36.653 0 00-24.629-34.687V20.213c2.33-.325 4.136-2.311 4.136-4.729v-4.079a4.8 4.8 0 00-4.795-4.795h-22.9a4.8 4.8 0 00-4.795 4.795v4.079c0 2.418 1.806 4.404 4.136 4.729v25.751a36.623 36.623 0 00-13.325 8.188 4.029 4.029 0 00-1.059-.158H11.315a4.068 4.068 0 00-4.064 4.064v3.293a4.064 4.064 0 003.339 3.991v40.919c0 5.498 4.473 9.971 9.971 9.971 5.329 0 9.681-4.205 9.945-9.469 6.639 6.56 15.746 10.626 25.794 10.626 15.615 0 28.974-9.796 34.283-23.562.172.259.356.512.565.753a7.39 7.39 0 005.636 2.571c.666 0 1.32-.089 1.95-.26l5.123 7.124a7.474 7.474 0 00-.676 1.361c-1.439 3.841.516 8.137 4.357 9.576a7.401 7.401 0 002.601.473c3.014 0 5.857-1.846 6.975-4.831a7.38 7.38 0 00-.194-5.688zm-18.424-22.42l2.891-6.437a7.34 7.34 0 001.505.674l-2.837 6.314a7.437 7.437 0 00-1.559-.551zm3.11-16.952a5.397 5.397 0 013.951-1.313 5.402 5.402 0 013.722 1.866 5.448 5.448 0 01-.553 7.673 5.409 5.409 0 01-3.951 1.312 5.398 5.398 0 01-3.721-1.866c-.951-1.099-1.417-2.502-1.312-3.951s.766-2.771 1.864-3.721zM83.154 91.986a7.474 7.474 0 00-.241-1.631l6.438-.939a7.43 7.43 0 00.109 1.602l-.018.052zm-2.004.641a5.405 5.405 0 01-1.865 3.722 5.446 5.446 0 01-7.673-.553 5.402 5.402 0 01-1.312-3.951 5.402 5.402 0 011.866-3.722 5.403 5.403 0 013.951-1.313 5.402 5.402 0 013.722 1.866 5.415 5.415 0 011.311 3.951zM42.055 15.484v-4.079A2.798 2.798 0 0144.85 8.61h22.9a2.798 2.798 0 012.795 2.795v4.079a2.798 2.798 0 01-2.795 2.795h-22.9a2.798 2.798 0 01-2.795-2.795zM9.251 61.352v-3.293c0-1.138.926-2.064 2.064-2.064h18.491c1.139 0 2.065.926 2.065 2.064v3.293a2.067 2.067 0 01-2.065 2.064H11.315a2.066 2.066 0 01-2.064-2.064zM56.3 115.39c-10.214 0-19.407-4.437-25.769-11.478v-7.676a1 1 0 00-2 0v10.025c0 4.395-3.576 7.971-7.971 7.971s-7.971-3.576-7.971-7.971V94.169h6.754a1 1 0 000-2H12.59v-4.292h6.754a1 1 0 000-2H12.59v-4.292h6.754a1 1 0 000-2H12.59v-4.293h6.754a1 1 0 000-2H12.59v-7.875h15.941v13.875a1 1 0 002 0V65.343a4.064 4.064 0 003.339-3.991v-3.293a4.047 4.047 0 00-1.187-2.866 34.61 34.61 0 0112.816-7.56 1 1 0 00.689-.951V20.279h20.22v4.818h-8.892a1 1 0 000 2h8.892v4.491h-8.892a1 1 0 000 2h8.892v4.492h-8.892a1 1 0 000 2h8.892v6.602a1 1 0 00.689.951 34.659 34.659 0 0123.604 37.792 7.385 7.385 0 00-.971 1.915l-7.612 1.11a7.388 7.388 0 00-5.861-3.633c-1.984-.146-3.901.494-5.403 1.795s-2.409 3.108-2.552 5.09.495 3.901 1.795 5.403a7.422 7.422 0 005.63 2.567 7.41 7.41 0 007.205-5.632l5.75-.839C83.64 106.17 71.031 115.39 56.3 115.39zm40.081-20.252a5.4 5.4 0 01-3.721-1.865 5.447 5.447 0 01.552-7.673 5.415 5.415 0 013.556-1.324c1.525 0 3.042.636 4.117 1.877a5.402 5.402 0 011.312 3.951c-.104 1.449-.767 2.771-1.866 3.722s-2.5 1.423-3.95 1.312zm5.26.2c.098-.085.186-.177.279-.266l4.618 6.421c-.48.267-.932.586-1.345.954l-4.577-6.365a7.487 7.487 0 001.025-.744zm13.601 14.557a5.445 5.445 0 01-7.002 3.186 5.446 5.446 0 01-3.186-7.002 5.448 5.448 0 015.1-3.531c.632 0 1.276.111 1.902.346 1.36.509 2.441 1.519 3.043 2.841s.653 2.8.143 4.16z"/><path d="M20.561 40.491c-2.855 0-5.179 2.323-5.179 5.179s2.323 5.179 5.179 5.179 5.179-2.323 5.179-5.179-2.323-5.179-5.179-5.179zm0 8.357c-1.753 0-3.179-1.426-3.179-3.179s1.426-3.179 3.179-3.179 3.179 1.426 3.179 3.179-1.426 3.179-3.179 3.179zm0-24.39c2.855 0 5.179-2.323 5.179-5.179S23.417 14.1 20.561 14.1s-5.179 2.323-5.179 5.179 2.324 5.179 5.179 5.179zm0-8.357c1.753 0 3.179 1.426 3.179 3.179s-1.426 3.179-3.179 3.179-3.179-1.426-3.179-3.179 1.426-3.179 3.179-3.179zM11.59 39.033c2.855 0 5.179-2.323 5.179-5.179s-2.323-5.179-5.179-5.179-5.179 2.323-5.179 5.179 2.324 5.179 5.179 5.179zm0-8.358c1.753 0 3.179 1.426 3.179 3.179s-1.426 3.179-3.179 3.179-3.179-1.426-3.179-3.179 1.426-3.179 3.179-3.179z"/></g></svg>