<svg height="512pt" viewBox="-19 0 512 512" width="512pt" xmlns="http://www.w3.org/2000/svg"><path d="M272.2 28c-57.438 0-104 110.137-104 246 0 100.957 25.714 187.691 62.491 225.605 4.743 1.567 9.582 2.395 14.508 2.395 57.438 0 104-110.137 104-246 0-100.957-25.715-187.691-62.492-225.605-4.742-1.567-9.586-2.395-14.508-2.395zm0 0" fill="#7d9bff"/><path d="M297.2 346.066c102.503-59.18 170.417-139.199 167.226-191.722-43.567-29.567-147.281-10.848-250.227 48.59-36.543 21.097-52.906 69.863-79 94.066-4.77 4.422-25.117-16.16-29.469-11.719-38.664 39.422-60.605 78.996-58.757 109.375 43.562 29.567 147.277 10.848 250.226-48.59zm0 0" fill="#6a80ff"/><path d="M297.2 165.934a581.16 581.16 0 00-37.755-19.993c-90.808-36.27-170.46-37.48-193.289 2.059C37.438 197.742 109.54 293.137 227.2 361.066a579.141 579.141 0 0037.754 19.993c90.805 36.27 170.461 37.48 193.29-2.059 28.718-49.742-43.384-145.137-161.044-213.066zm0 0" fill="#a7c5ff"/><path d="M277.2 256c0 17.672-14.329 32-32 32s-32-14.328-32-32 14.327-32 32-32 32 14.328 32 32zm0 0" fill="#fff"/><path d="M327.23 47.387c0 14.91-12.085 27-27 27-14.91 0-27-12.09-27-27 0-14.914 12.09-27 27-27 14.915 0 27 12.086 27 27zM64.016 312.648c0 14.91-12.09 27-27 27s-27-12.09-27-27c0-14.914 12.09-27 27-27s27 12.086 27 27zm361.332 95.321c0 14.91-12.09 27-27 27s-27-12.09-27-27c0-14.914 12.09-27 27-27s27 12.086 27 27zm0 0" fill="#ffb954"/><path d="M245.2 214c-23.16 0-42 18.84-42 42s18.84 42 42 42 42-18.84 42-42-18.845-42-42-42zm0 64c-12.134 0-22-9.867-22-22s9.866-22 22-22c12.128 0 22 9.867 22 22s-9.872 22-22 22zm213.84-90.668c-5.02-2.3-10.958-.102-13.263 4.918l-.289.629c-2.34 5.004-.18 10.957 4.825 13.293a9.992 9.992 0 0013.293-4.828l.351-.754c2.305-5.02.102-10.957-4.918-13.258zm0 0"/><path d="M440.59 273.258c-4.352-5.758-9.067-11.516-14.094-17.25 5.637-6.434 10.871-12.895 15.66-19.36 3.29-4.437 2.356-10.703-2.082-13.988-4.437-3.289-10.703-2.355-13.988 2.082-4.082 5.512-8.523 11.024-13.27 16.524-16.578-16.914-35.84-33.47-57.144-49.13-2.934-26.206-7.649-51.187-13.957-73.921 6.32-1.211 12.523-2.2 18.59-2.953 45.152-5.61 77.695 2.675 89.277 22.738 3.672 6.363 5.32 13.957 4.898 22.57a10.002 10.002 0 009.497 10.48c5.52.274 10.21-3.98 10.48-9.495.613-12.52-1.926-23.809-7.555-33.555-16.027-27.762-54.761-39.332-109.062-32.586-7.176.895-14.531 2.102-22.024 3.59-2.992-8.848-6.246-17.262-9.75-25.168 6.883-6.723 11.164-16.094 11.164-26.45 0-20.402-16.597-37-37-37a36.79 36.79 0 00-16.507 3.9C271.512 4.811 258.574 0 245.199 0c-32.054 0-61.441 27.758-82.75 78.156-2.812 6.653-5.441 13.617-7.898 20.84-7.48-1.484-14.828-2.691-21.996-3.582-54.301-6.75-93.032 4.824-109.059 32.586s-6.684 67.09 26.313 110.742c4.359 5.77 9.082 11.535 14.117 17.281-6.16 7.008-11.817 14.028-16.906 21.012-.145-.043-.282-.09-.426-.125-9.547-2.558-19.52-1.246-28.078 3.695-8.559 4.942-14.68 12.922-17.239 22.465-2.558 9.547-1.246 19.52 3.696 28.078a36.848 36.848 0 0011.629 12.368c-2.094 15.3.21 28.906 6.894 40.484 13.043 22.594 41.125 34.465 80.399 34.465 8.98 0 18.554-.621 28.664-1.88 7.168-.89 14.511-2.097 21.996-3.581 2.453 7.223 5.082 14.187 7.894 20.84C183.758 484.242 213.145 512 245.2 512c32.055 0 61.442-27.758 82.75-78.156 2.817-6.664 5.45-13.637 7.906-20.871 9.157 1.836 18.067 3.222 26.668 4.14 2.38 9.325 8.356 17.719 17.325 22.899 5.703 3.293 12.027 4.972 18.441 4.972 3.211 0 6.45-.421 9.633-1.277 9.547-2.559 17.527-8.68 22.469-17.238a36.852 36.852 0 004.898-16.254c14.297-5.84 24.926-14.637 31.613-26.215 16.028-27.762 6.68-67.09-26.312-110.742zm-41.309-17.254c-12.238 12.57-26.074 24.96-41.222 36.934a595.842 595.842 0 001.14-36.938 585.56 585.56 0 00-1.176-36.95c15.153 11.977 29.008 24.376 41.258 36.954zM292.2 337.406c-15.586 8.996-31.308 17.125-46.941 24.297a560.005 560.005 0 01-47.059-24.297c-15.605-9.008-30.523-18.574-44.566-28.539-1.61-17.148-2.434-34.851-2.434-52.867 0-17.996.824-35.676 2.426-52.8a560.53 560.53 0 0144.574-28.606c15.602-9.008 31.348-17.145 47-24.324 15.653 7.18 31.395 15.316 47 24.324 15.582 8.996 30.485 18.55 44.512 28.504A561.498 561.498 0 01339.199 256c0 18.02-.828 35.723-2.433 52.871-14.036 9.953-28.95 19.52-44.567 28.535zm41.403-2.125c-2.79 19.074-6.594 37.239-11.352 54.106-16.938-4.32-34.59-10.114-52.52-17.227a594.603 594.603 0 0032.47-17.433 597.094 597.094 0 0031.402-19.446zm-112.817 36.903c-17.95 7.132-35.613 12.933-52.625 17.253-4.765-16.882-8.57-35.066-11.367-54.16a596.89 596.89 0 0031.406 19.45 583.208 583.208 0 0032.586 17.457zm-88.445-79.262c-15.125-11.957-28.957-24.332-41.184-36.887 12.211-12.508 26.051-24.898 41.176-36.87A595.734 595.734 0 00131.199 256c0 12.465.383 24.797 1.14 36.922zm24.45-116.156c2.792-19.11 6.6-37.309 11.37-54.203 17 4.316 34.649 10.109 52.582 17.238a590.54 590.54 0 00-32.543 17.472 583.413 583.413 0 00-31.41 19.493zm176.741-.09a595.67 595.67 0 00-31.332-19.403 596.06 596.06 0 00-32.543-17.472c17.914-7.117 35.547-12.91 52.531-17.223 4.727 16.828 8.54 35.012 11.344 54.098zm-16.3-129.29c0 9.372-7.626 17-17 17s-17-7.628-17-17c0-9.374 7.624-17 17-17s17 7.626 17 17zm-136.36 38.56C198.586 44.035 222.035 20 245.2 20c7.871 0 15.754 2.707 23.5 8.05a36.765 36.765 0 00-5.469 19.333c0 20.402 16.598 37 37 37 2.825 0 5.57-.328 8.215-.93a276.385 276.385 0 017.785 20.024c-22.91 5.89-46.847 14.285-71.03 24.886-24.192-10.605-48.138-19-71.052-24.89a285.75 285.75 0 016.723-17.528zM65.761 226.683c-27.432-36.3-36.526-68.62-24.944-88.683 11.582-20.063 44.121-28.348 89.274-22.738 6.05.754 12.238 1.738 18.539 2.945-6.36 22.813-11.067 47.773-13.977 74.055-21.23 15.644-40.504 32.215-57.039 49.047a290.887 290.887 0 01-11.851-14.625zm-45.167 81.562a16.89 16.89 0 017.922-10.32 16.914 16.914 0 018.472-2.285c1.477 0 2.965.195 4.43.586a16.89 16.89 0 0110.32 7.921c2.27 3.93 2.875 8.512 1.7 12.899s-3.989 8.05-7.922 10.324a16.888 16.888 0 01-12.899 1.695 16.882 16.882 0 01-10.324-7.918 16.897 16.897 0 01-1.7-12.902zm109.496 88.492c-45.153 5.61-77.692-2.68-89.274-22.738-3.933-6.816-5.53-14.992-4.78-24.371.347.012.694.035 1.042.035 6.41 0 12.738-1.684 18.438-4.973 8.558-4.941 14.683-12.921 17.238-22.468 2.558-9.543 1.246-19.516-3.695-28.075a37.122 37.122 0 00-4.907-6.656c4.11-5.562 8.598-11.152 13.442-16.746 16.554 16.895 35.793 33.43 57.07 49.07 2.906 26.254 7.61 51.188 13.965 73.977a287.713 287.713 0 01-18.54 2.945zm179.437 29.317C291.81 467.965 268.363 492 245.2 492s-46.61-24.035-64.328-65.945a285.75 285.75 0 01-6.723-17.528c22.938-5.894 46.907-14.3 71.122-24.925 24.164 10.566 48.148 18.972 70.996 24.878a289.85 289.85 0 01-6.739 17.575zm103.543-9.586c-4.687 8.117-15.105 10.906-23.222 6.222-8.118-4.687-10.91-15.105-6.223-23.222 3.145-5.45 8.871-8.5 14.75-8.5 2.883 0 5.8.734 8.473 2.273a16.898 16.898 0 017.922 10.324 16.897 16.897 0 01-1.7 12.903zM449.582 374c-3.934 6.813-10.215 12.281-18.707 16.32-3.219-5.957-8.02-10.925-14.027-14.394-17.668-10.203-40.344-4.13-50.543 13.539a37.06 37.06 0 00-3.301 7.578 275.247 275.247 0 01-21.23-3.27c6.347-22.78 11.05-47.703 13.956-73.941 21.301-15.652 40.54-32.191 57.094-49.094a285.429 285.429 0 0111.809 14.578c27.437 36.301 36.527 68.622 24.949 88.684zm0 0"/></svg>